<?xml version="1.0" standalone="no" ?>
<!DOCTYPE svg PUBLIC "-//W3C//DTD SVG 1.1//EN" "http://www.w3.org/Graphics/SVG/1.1/DTD/svg11.dtd">
<svg width="563px" height="600px" xmlns="http://www.w3.org/2000/svg" version="1.1" >
	<circle cx="87" cy="436" r="6.14035" fill="rgb(0,0,0)" />
	<circle cx="324" cy="503" r="4.16667" fill="rgb(0,0,0)" />
	<circle cx="376" cy="207" r="2.43056" fill="rgb(0,0,0)" />
	<circle cx="471" cy="199" r="2.17391" fill="rgb(0,0,0)" />
	<circle cx="68" cy="512" r="6.42202" fill="rgb(0,0,0)" />
	<circle cx="227" cy="561" r="6.42202" fill="rgb(0,0,0)" />
	<circle cx="465" cy="589" r="4.82759" fill="rgb(0,0,0)" />
	<circle cx="42" cy="589" r="6.48148" fill="rgb(0,0,0)" />
	<circle cx="269" cy="259" r="4.21687" fill="rgb(0,0,0)" />
	<circle cx="15" cy="16" r="2.72374" fill="rgb(0,0,0)" />
	<circle cx="405" cy="555" r="5.42636" fill="rgb(0,0,0)" />
	<circle cx="275" cy="406" r="4.8951" fill="rgb(0,0,0)" />
	<circle cx="34" cy="314" r="3.34928" fill="rgb(0,0,0)" />
	<circle cx="165" cy="404" r="4.96454" fill="rgb(0,0,0)" />
	<circle cx="179" cy="541" r="6.48148" fill="rgb(0,0,0)" />
	<circle cx="202" cy="494" r="5.6" fill="rgb(0,0,0)" />
	<circle cx="98" cy="131" r="3.11111" fill="rgb(0,0,0)" />
	<circle cx="235" cy="573" r="6.30631" fill="rgb(0,0,0)" />
	<circle cx="554" cy="273" r="2.75591" fill="rgb(0,0,0)" />
	<circle cx="356" cy="591" r="5.88235" fill="rgb(0,0,0)" />
	<circle cx="552" cy="143" r="3.60825" fill="rgb(0,0,0)" />
	<circle cx="62" cy="252" r="3.33333" fill="rgb(0,0,0)" />
	<circle cx="502" cy="404" r="2.52708" fill="rgb(0,0,0)" />
	<circle cx="72" cy="566" r="6.54206" fill="rgb(0,0,0)" />
	<circle cx="248" cy="440" r="3.48259" fill="rgb(0,0,0)" />
	<circle cx="184" cy="112" r="3.33333" fill="rgb(0,0,0)" />
	<circle cx="151" cy="329" r="4.60526" fill="rgb(0,0,0)" />
	<circle cx="553" cy="167" r="3.60825" fill="rgb(0,0,0)" />
	<circle cx="421" cy="476" r="5.14706" fill="rgb(0,0,0)" />
	<circle cx="440" cy="283" r="2.43056" fill="rgb(0,0,0)" />
	<circle cx="425" cy="10" r="4.29448" fill="rgb(0,0,0)" />
	<circle cx="169" cy="520" r="3.46535" fill="rgb(0,0,0)" />
	<circle cx="233" cy="161" r="3.33333" fill="rgb(0,0,0)" />
	<circle cx="112" cy="431" r="3.41463" fill="rgb(0,0,0)" />
	<circle cx="122" cy="539" r="6.60377" fill="rgb(0,0,0)" />
	<circle cx="221" cy="250" r="3.28639" fill="rgb(0,0,0)" />
	<circle cx="482" cy="534" r="6.36364" fill="rgb(0,0,0)" />
	<circle cx="205" cy="380" r="3.62694" fill="rgb(0,0,0)" />
	<circle cx="304" cy="536" r="5.34351" fill="rgb(0,0,0)" />
	<circle cx="105" cy="499" r="6.66667" fill="rgb(0,0,0)" />
	<circle cx="300" cy="499" r="4.60526" fill="rgb(0,0,0)" />
	<circle cx="453" cy="572" r="4.72973" fill="rgb(0,0,0)" />
	<circle cx="25" cy="43" r="2.72374" fill="rgb(0,0,0)" />
	<circle cx="522" cy="270" r="2.2082" fill="rgb(0,0,0)" />
	<circle cx="130" cy="214" r="3.82514" fill="rgb(0,0,0)" />
	<circle cx="94" cy="154" r="3.28639" fill="rgb(0,0,0)" />
	<circle cx="224" cy="102" r="3.88889" fill="rgb(0,0,0)" />
	<circle cx="247" cy="182" r="3.19635" fill="rgb(0,0,0)" />
	<circle cx="201" cy="475" r="5.34351" fill="rgb(0,0,0)" />
	<circle cx="466" cy="401" r="2.48227" fill="rgb(0,0,0)" />
	<circle cx="427" cy="267" r="4" fill="rgb(0,0,0)" />
	<circle cx="439" cy="462" r="4.51613" fill="rgb(0,0,0)" />
	<circle cx="166" cy="437" r="5.26316" fill="rgb(0,0,0)" />
	<circle cx="305" cy="209" r="3.68421" fill="rgb(0,0,0)" />
	<circle cx="138" cy="410" r="4.69799" fill="rgb(0,0,0)" />
	<circle cx="49" cy="15" r="2.7027" fill="rgb(0,0,0)" />
	<circle cx="25" cy="468" r="6.25" fill="rgb(0,0,0)" />
	<circle cx="334" cy="199" r="2.58303" fill="rgb(0,0,0)" />
	<circle cx="112" cy="245" r="3.57143" fill="rgb(0,0,0)" />
	<circle cx="45" cy="348" r="3.21101" fill="rgb(0,0,0)" />
	<circle cx="69" cy="167" r="2.85714" fill="rgb(0,0,0)" />
	<circle cx="553" cy="357" r="2.5641" fill="rgb(0,0,0)" />
	<circle cx="186" cy="593" r="6.66667" fill="rgb(0,0,0)" />
	<circle cx="304" cy="517" r="6.42202" fill="rgb(0,0,0)" />
	<circle cx="552" cy="521" r="4.48718" fill="rgb(0,0,0)" />
	<circle cx="473" cy="12" r="4.16667" fill="rgb(0,0,0)" />
	<circle cx="133" cy="554" r="6.73077" fill="rgb(0,0,0)" />
	<circle cx="15" cy="254" r="2.71318" fill="rgb(0,0,0)" />
	<circle cx="245" cy="4" r="3.84615" fill="rgb(0,0,0)" />
	<circle cx="419" cy="433" r="3.76344" fill="rgb(0,0,0)" />
	<circle cx="75" cy="227" r="3.33333" fill="rgb(0,0,0)" />
	<circle cx="285" cy="535" r="6.42202" fill="rgb(0,0,0)" />
	<circle cx="231" cy="472" r="4.72973" fill="rgb(0,0,0)" />
	<circle cx="142" cy="111" r="3.78378" fill="rgb(0,0,0)" />
	<circle cx="104" cy="469" r="3.39806" fill="rgb(0,0,0)" />
	<circle cx="357" cy="531" r="3.09735" fill="rgb(0,0,0)" />
	<circle cx="188" cy="496" r="6.66667" fill="rgb(0,0,0)" />
	<circle cx="201" cy="219" r="3.43137" fill="rgb(0,0,0)" />
	<circle cx="168" cy="538" r="6.54206" fill="rgb(0,0,0)" />
	<circle cx="164" cy="364" r="4.4586" fill="rgb(0,0,0)" />
	<circle cx="96" cy="551" r="6.60377" fill="rgb(0,0,0)" />
	<circle cx="301" cy="3" r="4.40252" fill="rgb(0,0,0)" />
	<circle cx="247" cy="417" r="3.48259" fill="rgb(0,0,0)" />
	<circle cx="223" cy="140" r="3.51759" fill="rgb(0,0,0)" />
	<circle cx="104" cy="77" r="2.72374" fill="rgb(0,0,0)" />
	<circle cx="340" cy="92" r="2.17391" fill="rgb(0,0,0)" />
	<circle cx="103" cy="13" r="2.73438" fill="rgb(0,0,0)" />
	<circle cx="357" cy="368" r="4.11765" fill="rgb(0,0,0)" />
	<circle cx="13" cy="210" r="2.64151" fill="rgb(0,0,0)" />
	<circle cx="478" cy="509" r="5.83333" fill="rgb(0,0,0)" />
	<circle cx="183" cy="475" r="5.88235" fill="rgb(0,0,0)" />
	<circle cx="428" cy="368" r="2.4055" fill="rgb(0,0,0)" />
	<circle cx="312" cy="380" r="3.05677" fill="rgb(0,0,0)" />
	<circle cx="107" cy="269" r="3.66492" fill="rgb(0,0,0)" />
	<circle cx="337" cy="369" r="4.06977" fill="rgb(0,0,0)" />
	<circle cx="321" cy="33" r="2.25806" fill="rgb(0,0,0)" />
	<circle cx="201" cy="287" r="3.84615" fill="rgb(0,0,0)" />
	<circle cx="201" cy="307" r="3.84615" fill="rgb(0,0,0)" />
	<circle cx="296" cy="231" r="3.8674" fill="rgb(0,0,0)" />
	<circle cx="411" cy="591" r="5.34351" fill="rgb(0,0,0)" />
	<circle cx="11" cy="178" r="2.81124" fill="rgb(0,0,0)" />
	<circle cx="498" cy="11" r="3.88889" fill="rgb(0,0,0)" />
	<circle cx="353" cy="557" r="6.36364" fill="rgb(0,0,0)" />
	<circle cx="407" cy="242" r="3.76344" fill="rgb(0,0,0)" />
	<circle cx="536" cy="111" r="3.76344" fill="rgb(0,0,0)" />
	<circle cx="60" cy="438" r="3.05677" fill="rgb(0,0,0)" />
	<circle cx="301" cy="183" r="3.0303" fill="rgb(0,0,0)" />
	<circle cx="276" cy="430" r="3.09735" fill="rgb(0,0,0)" />
	<circle cx="501" cy="493" r="4.16667" fill="rgb(0,0,0)" />
	<circle cx="408" cy="10" r="4.19162" fill="rgb(0,0,0)" />
	<circle cx="264" cy="414" r="4.48718" fill="rgb(0,0,0)" />
	<circle cx="142" cy="364" r="4.69799" fill="rgb(0,0,0)" />
	<circle cx="509" cy="74" r="3.80435" fill="rgb(0,0,0)" />
	<circle cx="223" cy="274" r="3.31754" fill="rgb(0,0,0)" />
	<circle cx="390" cy="255" r="3.84615" fill="rgb(0,0,0)" />
	<circle cx="170" cy="70" r="2.89256" fill="rgb(0,0,0)" />
	<circle cx="238" cy="590" r="6.36364" fill="rgb(0,0,0)" />
	<circle cx="444" cy="551" r="4.72973" fill="rgb(0,0,0)" />
	<circle cx="142" cy="437" r="4.43038" fill="rgb(0,0,0)" />
	<circle cx="79" cy="459" r="6.30631" fill="rgb(0,0,0)" />
	<circle cx="369" cy="451" r="2.9661" fill="rgb(0,0,0)" />
	<circle cx="122" cy="323" r="3.58974" fill="rgb(0,0,0)" />
	<circle cx="76" cy="65" r="2.7451" fill="rgb(0,0,0)" />
	<circle cx="552" cy="217" r="3.13901" fill="rgb(0,0,0)" />
	<circle cx="24" cy="335" r="3.19635" fill="rgb(0,0,0)" />
	<circle cx="267" cy="561" r="6.54206" fill="rgb(0,0,0)" />
	<circle cx="121" cy="123" r="3.41463" fill="rgb(0,0,0)" />
	<circle cx="79" cy="267" r="3.58974" fill="rgb(0,0,0)" />
	<circle cx="265" cy="129" r="3.13901" fill="rgb(0,0,0)" />
	<circle cx="242" cy="99" r="3.66492" fill="rgb(0,0,0)" />
	<circle cx="553" cy="121" r="3.68421" fill="rgb(0,0,0)" />
	<circle cx="208" cy="160" r="3.46535" fill="rgb(0,0,0)" />
	<circle cx="335" cy="242" r="3.46535" fill="rgb(0,0,0)" />
	<circle cx="48" cy="523" r="6.48148" fill="rgb(0,0,0)" />
	<circle cx="551" cy="557" r="5.7377" fill="rgb(0,0,0)" />
	<circle cx="537" cy="474" r="3.7234" fill="rgb(0,0,0)" />
	<circle cx="221" cy="184" r="3.43137" fill="rgb(0,0,0)" />
	<circle cx="524" cy="12" r="3.80435" fill="rgb(0,0,0)" />
	<circle cx="158" cy="345" r="4.43038" fill="rgb(0,0,0)" />
	<circle cx="483" cy="84" r="4.19162" fill="rgb(0,0,0)" />
	<circle cx="162" cy="35" r="2.50896" fill="rgb(0,0,0)" />
	<circle cx="552" cy="96" r="3.66492" fill="rgb(0,0,0)" />
	<circle cx="170" cy="136" r="3.34928" fill="rgb(0,0,0)" />
	<circle cx="192" cy="566" r="6.60377" fill="rgb(0,0,0)" />
	<circle cx="219" cy="5" r="3.28639" fill="rgb(0,0,0)" />
	<circle cx="394" cy="271" r="3.57143" fill="rgb(0,0,0)" />
	<circle cx="146" cy="522" r="6.36364" fill="rgb(0,0,0)" />
	<circle cx="548" cy="381" r="2.61194" fill="rgb(0,0,0)" />
	<circle cx="138" cy="234" r="3.80435" fill="rgb(0,0,0)" />
	<circle cx="223" cy="450" r="3.91061" fill="rgb(0,0,0)" />
	<circle cx="533" cy="85" r="3.7037" fill="rgb(0,0,0)" />
	<circle cx="190" cy="143" r="3.48259" fill="rgb(0,0,0)" />
	<circle cx="189" cy="401" r="4.14201" fill="rgb(0,0,0)" />
	<circle cx="149" cy="255" r="4.02299" fill="rgb(0,0,0)" />
	<circle cx="424" cy="447" r="4.32099" fill="rgb(0,0,0)" />
	<circle cx="250" cy="565" r="6.42202" fill="rgb(0,0,0)" />
	<circle cx="42" cy="147" r="2.8" fill="rgb(0,0,0)" />
	<circle cx="465" cy="323" r="2.25806" fill="rgb(0,0,0)" />
	<circle cx="483" cy="475" r="3.91061" fill="rgb(0,0,0)" />
	<circle cx="101" cy="220" r="3.16742" fill="rgb(0,0,0)" />
	<circle cx="211" cy="325" r="3.5" fill="rgb(0,0,0)" />
	<circle cx="516" cy="120" r="3.64583" fill="rgb(0,0,0)" />
	<circle cx="57" cy="550" r="6.48148" fill="rgb(0,0,0)" />
	<circle cx="374" cy="575" r="5.78512" fill="rgb(0,0,0)" />
	<circle cx="303" cy="562" r="6.42202" fill="rgb(0,0,0)" />
	<circle cx="462" cy="527" r="5.55556" fill="rgb(0,0,0)" />
	<circle cx="176" cy="564" r="6.66667" fill="rgb(0,0,0)" />
	<circle cx="148" cy="314" r="4.375" fill="rgb(0,0,0)" />
	<circle cx="127" cy="97" r="3.0837" fill="rgb(0,0,0)" />
	<circle cx="13" cy="584" r="6.66667" fill="rgb(0,0,0)" />
	<circle cx="291" cy="418" r="4.19162" fill="rgb(0,0,0)" />
	<circle cx="208" cy="567" r="6.54206" fill="rgb(0,0,0)" />
	<circle cx="399" cy="578" r="5.34351" fill="rgb(0,0,0)" />
	<circle cx="456" cy="69" r="4.24242" fill="rgb(0,0,0)" />
	<circle cx="90" cy="589" r="6.66667" fill="rgb(0,0,0)" />
	<circle cx="384" cy="541" r="5.69106" fill="rgb(0,0,0)" />
	<circle cx="229" cy="395" r="3.58974" fill="rgb(0,0,0)" />
	<circle cx="531" cy="149" r="3.41463" fill="rgb(0,0,0)" />
	<circle cx="326" cy="430" r="3.7234" fill="rgb(0,0,0)" />
	<circle cx="401" cy="399" r="2.5" fill="rgb(0,0,0)" />
	<circle cx="219" cy="584" r="6.48148" fill="rgb(0,0,0)" />
	<circle cx="21" cy="453" r="3.05677" fill="rgb(0,0,0)" />
	<circle cx="20" cy="415" r="2.54545" fill="rgb(0,0,0)" />
	<circle cx="366" cy="422" r="3.7037" fill="rgb(0,0,0)" />
	<circle cx="338" cy="260" r="3.28639" fill="rgb(0,0,0)" />
	<circle cx="520" cy="98" r="3.78378" fill="rgb(0,0,0)" />
	<circle cx="206" cy="130" r="3.78378" fill="rgb(0,0,0)" />
	<circle cx="135" cy="289" r="5.10949" fill="rgb(0,0,0)" />
	<circle cx="404" cy="289" r="3.18182" fill="rgb(0,0,0)" />
	<circle cx="549" cy="586" r="6.03448" fill="rgb(0,0,0)" />
	<circle cx="93" cy="181" r="3.09735" fill="rgb(0,0,0)" />
	<circle cx="168" cy="323" r="4.21687" fill="rgb(0,0,0)" />
	<circle cx="165" cy="555" r="6.73077" fill="rgb(0,0,0)" />
	<circle cx="19" cy="91" r="2.88066" fill="rgb(0,0,0)" />
	<circle cx="197" cy="551" r="6.54206" fill="rgb(0,0,0)" />
	<circle cx="183" cy="552" r="6.66667" fill="rgb(0,0,0)" />
	<circle cx="372" cy="558" r="5.69106" fill="rgb(0,0,0)" />
	<circle cx="436" cy="589" r="5.22388" fill="rgb(0,0,0)" />
	<circle cx="259" cy="308" r="2.68199" fill="rgb(0,0,0)" />
	<circle cx="207" cy="594" r="6.54206" fill="rgb(0,0,0)" />
	<circle cx="157" cy="528" r="6.48148" fill="rgb(0,0,0)" />
	<circle cx="456" cy="365" r="2.3569" fill="rgb(0,0,0)" />
	<circle cx="440" cy="441" r="3.93258" fill="rgb(0,0,0)" />
	<circle cx="178" cy="383" r="4.48718" fill="rgb(0,0,0)" />
	<circle cx="196" cy="267" r="3.88889" fill="rgb(0,0,0)" />
	<circle cx="394" cy="519" r="5.88235" fill="rgb(0,0,0)" />
	<circle cx="528" cy="406" r="2.57353" fill="rgb(0,0,0)" />
	<circle cx="363" cy="250" r="2.8" fill="rgb(0,0,0)" />
	<circle cx="282" cy="554" r="6.66667" fill="rgb(0,0,0)" />
	<circle cx="523" cy="544" r="5.10949" fill="rgb(0,0,0)" />
	<circle cx="162" cy="465" r="6.66667" fill="rgb(0,0,0)" />
	<circle cx="170" cy="9" r="2.85714" fill="rgb(0,0,0)" />
	<circle cx="229" cy="353" r="3.11111" fill="rgb(0,0,0)" />
	<circle cx="332" cy="470" r="2.71318" fill="rgb(0,0,0)" />
	<circle cx="70" cy="348" r="3.51759" fill="rgb(0,0,0)" />
	<circle cx="261" cy="4" r="3.97727" fill="rgb(0,0,0)" />
	<circle cx="554" cy="244" r="3.04348" fill="rgb(0,0,0)" />
	<circle cx="199" cy="45" r="2.32558" fill="rgb(0,0,0)" />
	<circle cx="131" cy="590" r="6.73077" fill="rgb(0,0,0)" />
	<circle cx="318" cy="272" r="3.25581" fill="rgb(0,0,0)" />
	<circle cx="11" cy="117" r="2.94118" fill="rgb(0,0,0)" />
	<circle cx="137" cy="382" r="4.96454" fill="rgb(0,0,0)" />
	<circle cx="150" cy="571" r="6.60377" fill="rgb(0,0,0)" />
	<circle cx="199" cy="581" r="6.66667" fill="rgb(0,0,0)" />
	<circle cx="306" cy="587" r="6.48148" fill="rgb(0,0,0)" />
	<circle cx="331" cy="307" r="2.94118" fill="rgb(0,0,0)" />
	<circle cx="406" cy="476" r="5.69106" fill="rgb(0,0,0)" />
	<circle cx="381" cy="591" r="5.38462" fill="rgb(0,0,0)" />
	<circle cx="550" cy="14" r="3.64583" fill="rgb(0,0,0)" />
	<circle cx="102" cy="535" r="6.54206" fill="rgb(0,0,0)" />
	<circle cx="156" cy="181" r="3.43137" fill="rgb(0,0,0)" />
	<circle cx="144" cy="136" r="3.44828" fill="rgb(0,0,0)" />
	<circle cx="491" cy="369" r="2.30263" fill="rgb(0,0,0)" />
	<circle cx="95" cy="570" r="6.54206" fill="rgb(0,0,0)" />
	<circle cx="486" cy="100" r="4.02299" fill="rgb(0,0,0)" />
	<circle cx="293" cy="261" r="3.48259" fill="rgb(0,0,0)" />
	<circle cx="254" cy="83" r="3.01724" fill="rgb(0,0,0)" />
	<circle cx="164" cy="306" r="4.32099" fill="rgb(0,0,0)" />
	<circle cx="92" cy="357" r="3.78378" fill="rgb(0,0,0)" />
	<circle cx="188" cy="324" r="4.29448" fill="rgb(0,0,0)" />
	<circle cx="120" cy="149" r="3.24074" fill="rgb(0,0,0)" />
	<circle cx="300" cy="294" r="2.75591" fill="rgb(0,0,0)" />
	<circle cx="228" cy="413" r="3.9548" fill="rgb(0,0,0)" />
	<circle cx="505" cy="521" r="4.79452" fill="rgb(0,0,0)" />
	<circle cx="183" cy="304" r="4.14201" fill="rgb(0,0,0)" />
	<circle cx="276" cy="361" r="2.85714" fill="rgb(0,0,0)" />
	<circle cx="185" cy="171" r="3.33333" fill="rgb(0,0,0)" />
	<circle cx="311" cy="113" r="2.39726" fill="rgb(0,0,0)" />
	<circle cx="37" cy="121" r="2.89256" fill="rgb(0,0,0)" />
	<circle cx="340" cy="283" r="2.85714" fill="rgb(0,0,0)" />
	<circle cx="244" cy="137" r="3.33333" fill="rgb(0,0,0)" />
	<circle cx="32" cy="229" r="2.84553" fill="rgb(0,0,0)" />
	<circle cx="447" cy="248" r="2.59259" fill="rgb(0,0,0)" />
	<circle cx="194" cy="342" r="3.8674" fill="rgb(0,0,0)" />
	<circle cx="53" cy="381" r="2.50896" fill="rgb(0,0,0)" />
	<circle cx="283" cy="585" r="6.42202" fill="rgb(0,0,0)" />
	<circle cx="320" cy="228" r="3.46535" fill="rgb(0,0,0)" />
	<circle cx="527" cy="61" r="3.7234" fill="rgb(0,0,0)" />
	<circle cx="116" cy="555" r="6.66667" fill="rgb(0,0,0)" />
	<circle cx="438" cy="29" r="4.24242" fill="rgb(0,0,0)" />
	<circle cx="430" cy="507" r="5" fill="rgb(0,0,0)" />
	<circle cx="469" cy="79" r="4.16667" fill="rgb(0,0,0)" />
	<circle cx="89" cy="288" r="3.5" fill="rgb(0,0,0)" />
	<circle cx="551" cy="70" r="3.5533" fill="rgb(0,0,0)" />
	<circle cx="303" cy="442" r="3.07018" fill="rgb(0,0,0)" />
	<circle cx="229" cy="83" r="3.28639" fill="rgb(0,0,0)" />
	<circle cx="178" cy="278" r="4.04624" fill="rgb(0,0,0)" />
	<circle cx="504" cy="106" r="3.7037" fill="rgb(0,0,0)" />
	<circle cx="453" cy="505" r="5.03597" fill="rgb(0,0,0)" />
	<circle cx="112" cy="590" r="6.79612" fill="rgb(0,0,0)" />
	<circle cx="423" cy="548" r="5.03597" fill="rgb(0,0,0)" />
	<circle cx="149" cy="555" r="6.60377" fill="rgb(0,0,0)" />
	<circle cx="328" cy="164" r="2.4911" fill="rgb(0,0,0)" />
	<circle cx="117" cy="524" r="6.66667" fill="rgb(0,0,0)" />
	<circle cx="171" cy="254" r="3.76344" fill="rgb(0,0,0)" />
	<circle cx="11" cy="317" r="2.86885" fill="rgb(0,0,0)" />
	<circle cx="274" cy="184" r="3.22581" fill="rgb(0,0,0)" />
	<circle cx="530" cy="130" r="3.7037" fill="rgb(0,0,0)" />
	<circle cx="485" cy="65" r="4.09357" fill="rgb(0,0,0)" />
	<circle cx="314" cy="333" r="3.18182" fill="rgb(0,0,0)" />
	<circle cx="285" cy="515" r="5.88235" fill="rgb(0,0,0)" />
	<circle cx="87" cy="102" r="2.7668" fill="rgb(0,0,0)" />
	<circle cx="166" cy="575" r="6.60377" fill="rgb(0,0,0)" />
	<circle cx="32" cy="501" r="6.48148" fill="rgb(0,0,0)" />
	<circle cx="268" cy="518" r="6.54206" fill="rgb(0,0,0)" />
	<circle cx="156" cy="542" r="6.66667" fill="rgb(0,0,0)" />
	<circle cx="115" cy="572" r="6.60377" fill="rgb(0,0,0)" />
	<circle cx="150" cy="590" r="6.60377" fill="rgb(0,0,0)" />
	<circle cx="142" cy="162" r="3.41463" fill="rgb(0,0,0)" />
	<circle cx="526" cy="231" r="2.23642" fill="rgb(0,0,0)" />
	<circle cx="430" cy="489" r="5.03597" fill="rgb(0,0,0)" />
	<circle cx="116" cy="294" r="3.58974" fill="rgb(0,0,0)" />
	<circle cx="351" cy="573" r="6.19469" fill="rgb(0,0,0)" />
	<circle cx="119" cy="511" r="6.73077" fill="rgb(0,0,0)" />
	<circle cx="111" cy="343" r="4" fill="rgb(0,0,0)" />
	<circle cx="314" cy="406" r="4.32099" fill="rgb(0,0,0)" />
	<circle cx="119" cy="174" r="3.00429" fill="rgb(0,0,0)" />
	<circle cx="226" cy="120" r="3.62694" fill="rgb(0,0,0)" />
	<circle cx="48" cy="61" r="2.75591" fill="rgb(0,0,0)" />
	<circle cx="75" cy="483" r="6.36364" fill="rgb(0,0,0)" />
	<circle cx="447" cy="480" r="4.69799" fill="rgb(0,0,0)" />
	<circle cx="13" cy="147" r="2.89256" fill="rgb(0,0,0)" />
	<circle cx="496" cy="316" r="2.19436" fill="rgb(0,0,0)" />
	<circle cx="535" cy="170" r="3.39806" fill="rgb(0,0,0)" />
	<circle cx="254" cy="348" r="2.72374" fill="rgb(0,0,0)" />
	<circle cx="35" cy="479" r="6.48148" fill="rgb(0,0,0)" />
	<circle cx="260" cy="156" r="3.07018" fill="rgb(0,0,0)" />
	<circle cx="239" cy="524" r="6.19469" fill="rgb(0,0,0)" />
	<circle cx="230" cy="229" r="3.60825" fill="rgb(0,0,0)" />
	<circle cx="542" cy="449" r="2.69231" fill="rgb(0,0,0)" />
	<circle cx="55" cy="467" r="6.25" fill="rgb(0,0,0)" />
	<circle cx="195" cy="85" r="2.90456" fill="rgb(0,0,0)" />
	<circle cx="184" cy="424" r="4.82759" fill="rgb(0,0,0)" />
	<circle cx="525" cy="500" r="4.48718" fill="rgb(0,0,0)" />
	<circle cx="40" cy="267" r="3.19635" fill="rgb(0,0,0)" />
	<circle cx="17" cy="287" r="2.90456" fill="rgb(0,0,0)" />
	<circle cx="458" cy="39" r="4.26829" fill="rgb(0,0,0)" />
	<circle cx="166" cy="492" r="3.58974" fill="rgb(0,0,0)" />
	<circle cx="87" cy="248" r="3.64583" fill="rgb(0,0,0)" />
	<circle cx="525" cy="38" r="3.7037" fill="rgb(0,0,0)" />
	<circle cx="218" cy="489" r="5.38462" fill="rgb(0,0,0)" />
	<circle cx="480" cy="452" r="3.66492" fill="rgb(0,0,0)" />
	<circle cx="255" cy="239" r="3.62694" fill="rgb(0,0,0)" />
	<circle cx="416" cy="460" r="5.07246" fill="rgb(0,0,0)" />
	<circle cx="101" cy="516" r="6.66667" fill="rgb(0,0,0)" />
	<circle cx="76" cy="540" r="6.54206" fill="rgb(0,0,0)" />
	<circle cx="434" cy="42" r="3.64583" fill="rgb(0,0,0)" />
	<circle cx="161" cy="114" r="3.53535" fill="rgb(0,0,0)" />
	<circle cx="122" cy="393" r="3.62694" fill="rgb(0,0,0)" />
	<circle cx="55" cy="326" r="3.41463" fill="rgb(0,0,0)" />
	<circle cx="228" cy="375" r="3.30189" fill="rgb(0,0,0)" />
	<circle cx="195" cy="244" r="3.53535" fill="rgb(0,0,0)" />
	<circle cx="53" cy="494" r="6.48148" fill="rgb(0,0,0)" />
	<circle cx="460" cy="458" r="4.11765" fill="rgb(0,0,0)" />
	<circle cx="182" cy="578" r="6.66667" fill="rgb(0,0,0)" />
	<circle cx="406" cy="496" r="5.78512" fill="rgb(0,0,0)" />
	<circle cx="390" cy="5" r="3.62694" fill="rgb(0,0,0)" />
	<circle cx="212" cy="463" r="5.10949" fill="rgb(0,0,0)" />
	<circle cx="551" cy="410" r="2.52708" fill="rgb(0,0,0)" />
	<circle cx="170" cy="228" r="3.60825" fill="rgb(0,0,0)" />
	<circle cx="526" cy="363" r="2.43056" fill="rgb(0,0,0)" />
	<circle cx="265" cy="99" r="3.24074" fill="rgb(0,0,0)" />
	<circle cx="412" cy="513" r="5.88235" fill="rgb(0,0,0)" />
	<circle cx="234" cy="507" r="5.88235" fill="rgb(0,0,0)" />
	<circle cx="384" cy="235" r="3.125" fill="rgb(0,0,0)" />
	<circle cx="280" cy="244" r="5.07246" fill="rgb(0,0,0)" />
	<circle cx="190" cy="455" r="5.14706" fill="rgb(0,0,0)" />
	<circle cx="133" cy="571" r="6.73077" fill="rgb(0,0,0)" />
	<circle cx="276" cy="387" r="3.44828" fill="rgb(0,0,0)" />
	<circle cx="141" cy="539" r="6.66667" fill="rgb(0,0,0)" />
	<circle cx="454" cy="434" r="3.44828" fill="rgb(0,0,0)" />
	<circle cx="254" cy="397" r="3.9548" fill="rgb(0,0,0)" />
	<circle cx="432" cy="247" r="3.68421" fill="rgb(0,0,0)" />
	<circle cx="527" cy="568" r="5.10949" fill="rgb(0,0,0)" />
	<circle cx="225" cy="433" r="3.68421" fill="rgb(0,0,0)" />
	<circle cx="284" cy="153" r="2.9661" fill="rgb(0,0,0)" />
	<circle cx="503" cy="570" r="5.9322" fill="rgb(0,0,0)" />
	<circle cx="91" cy="397" r="2.62172" fill="rgb(0,0,0)" />
	<circle cx="550" cy="42" r="3.51759" fill="rgb(0,0,0)" />
	<circle cx="273" cy="221" r="3.5" fill="rgb(0,0,0)" />
	<circle cx="439" cy="528" r="4.79452" fill="rgb(0,0,0)" />
	<circle cx="236" cy="492" r="5.7377" fill="rgb(0,0,0)" />
	<circle cx="210" cy="95" r="3.78378" fill="rgb(0,0,0)" />
	<circle cx="437" cy="113" r="2.19436" fill="rgb(0,0,0)" />
	<circle cx="296" cy="476" r="2.94118" fill="rgb(0,0,0)" />
	<circle cx="299" cy="361" r="2.91667" fill="rgb(0,0,0)" />
	<circle cx="161" cy="91" r="3.13901" fill="rgb(0,0,0)" />
	<circle cx="228" cy="298" r="2.97872" fill="rgb(0,0,0)" />
	<circle cx="499" cy="88" r="4.04624" fill="rgb(0,0,0)" />
	<circle cx="306" cy="421" r="4.54545" fill="rgb(0,0,0)" />
	<circle cx="138" cy="63" r="2.65152" fill="rgb(0,0,0)" />
	<circle cx="200" cy="192" r="3.5" fill="rgb(0,0,0)" />
	<circle cx="11" cy="554" r="6.60377" fill="rgb(0,0,0)" />
	<circle cx="423" cy="230" r="4.19162" fill="rgb(0,0,0)" />
	<circle cx="261" cy="533" r="6.86275" fill="rgb(0,0,0)" />
	<circle cx="212" cy="553" r="6.60377" fill="rgb(0,0,0)" />
	<circle cx="509" cy="467" r="3.68421" fill="rgb(0,0,0)" />
	<circle cx="339" cy="414" r="4.26829" fill="rgb(0,0,0)" />
	<circle cx="232" cy="5" r="3.28639" fill="rgb(0,0,0)" />
	<circle cx="100" cy="314" r="3.5" fill="rgb(0,0,0)" />
	<circle cx="505" cy="440" r="2.89256" fill="rgb(0,0,0)" />
	<circle cx="260" cy="588" r="6.36364" fill="rgb(0,0,0)" />
	<circle cx="390" cy="561" r="5.83333" fill="rgb(0,0,0)" />
	<circle cx="154" cy="208" r="3.5533" fill="rgb(0,0,0)" />
	<circle cx="132" cy="274" r="5.7377" fill="rgb(0,0,0)" />
	<circle cx="47" cy="198" r="2.77778" fill="rgb(0,0,0)" />
	<circle cx="554" cy="191" r="3.46535" fill="rgb(0,0,0)" />
	<circle cx="302" cy="140" r="2.68199" fill="rgb(0,0,0)" />
	<circle cx="74" cy="27" r="2.71318" fill="rgb(0,0,0)" />
	<circle cx="249" cy="485" r="5.7377" fill="rgb(0,0,0)" />
	<circle cx="500" cy="32" r="3.91061" fill="rgb(0,0,0)" />
	<circle cx="500" cy="548" r="5.64516" fill="rgb(0,0,0)" />
	<circle cx="89" cy="496" r="6.60377" fill="rgb(0,0,0)" />
	<circle cx="114" cy="200" r="3.15315" fill="rgb(0,0,0)" />
	<circle cx="143" cy="461" r="3.82514" fill="rgb(0,0,0)" />
	<circle cx="164" cy="158" r="3.39806" fill="rgb(0,0,0)" />
	<circle cx="503" cy="53" r="3.88889" fill="rgb(0,0,0)" />
	<circle cx="272" cy="473" r="3.5" fill="rgb(0,0,0)" />
	<circle cx="479" cy="39" r="4.11765" fill="rgb(0,0,0)" />
	<circle cx="199" cy="6" r="3.05677" fill="rgb(0,0,0)" />
	<circle cx="413" cy="272" r="3.91061" fill="rgb(0,0,0)" />
	<circle cx="404" cy="228" r="3.53535" fill="rgb(0,0,0)" />
	<circle cx="135" cy="343" r="3.60825" fill="rgb(0,0,0)" />
	<circle cx="347" cy="225" r="2.8" fill="rgb(0,0,0)" />
	<circle cx="176" cy="342" r="4.26829" fill="rgb(0,0,0)" />
	<circle cx="325" cy="575" r="6.36364" fill="rgb(0,0,0)" />
	<circle cx="59" cy="216" r="3.22581" fill="rgb(0,0,0)" />
	<circle cx="209" cy="352" r="3.34928" fill="rgb(0,0,0)" />
	<circle cx="339" cy="349" r="3.30189" fill="rgb(0,0,0)" />
	<circle cx="67" cy="130" r="2.77778" fill="rgb(0,0,0)" />
	<circle cx="48" cy="298" r="3.21101" fill="rgb(0,0,0)" />
	<circle cx="248" cy="265" r="3.43137" fill="rgb(0,0,0)" />
	<circle cx="374" cy="169" r="2.34114" fill="rgb(0,0,0)" />
	<circle cx="169" cy="291" r="4.24242" fill="rgb(0,0,0)" />
	<circle cx="135" cy="305" r="4.69799" fill="rgb(0,0,0)" />
	<circle cx="287" cy="330" r="2.61194" fill="rgb(0,0,0)" />
	<circle cx="444" cy="8" r="4.29448" fill="rgb(0,0,0)" />
	<circle cx="539" cy="195" r="3.30189" fill="rgb(0,0,0)" />
	<circle cx="85" cy="521" r="6.54206" fill="rgb(0,0,0)" />
	<circle cx="35" cy="546" r="6.42202" fill="rgb(0,0,0)" />
	<circle cx="268" cy="283" r="3.19635" fill="rgb(0,0,0)" />
	<circle cx="536" cy="531" r="5.38462" fill="rgb(0,0,0)" />
	<circle cx="316" cy="250" r="3.7037" fill="rgb(0,0,0)" />
	<circle cx="208" cy="413" r="3.62694" fill="rgb(0,0,0)" />
	<circle cx="347" cy="435" r="3.62694" fill="rgb(0,0,0)" />
	<circle cx="36" cy="173" r="2.7027" fill="rgb(0,0,0)" />
	<circle cx="15" cy="382" r="2.54545" fill="rgb(0,0,0)" />
	<circle cx="85" cy="331" r="3.53535" fill="rgb(0,0,0)" />
	<circle cx="464" cy="57" r="4.21687" fill="rgb(0,0,0)" />
	<circle cx="272" cy="451" r="3.0303" fill="rgb(0,0,0)" />
	<circle cx="155" cy="386" r="4.96454" fill="rgb(0,0,0)" />
	<circle cx="254" cy="208" r="3.43137" fill="rgb(0,0,0)" />
	<circle cx="550" cy="495" r="4" fill="rgb(0,0,0)" />
	<circle cx="262" cy="485" r="5.18518" fill="rgb(0,0,0)" />
	<circle cx="215" cy="511" r="5.78512" fill="rgb(0,0,0)" />
	<circle cx="408" cy="210" r="2.6616" fill="rgb(0,0,0)" />
	<circle cx="481" cy="565" r="6.03448" fill="rgb(0,0,0)" />
	<circle cx="418" cy="530" r="5.38462" fill="rgb(0,0,0)" />
	<circle cx="285" cy="203" r="4.04624" fill="rgb(0,0,0)" />
	<circle cx="47" cy="241" r="3.33333" fill="rgb(0,0,0)" />
	<circle cx="398" cy="444" r="3.48259" fill="rgb(0,0,0)" />
	<circle cx="543" cy="315" r="2.28758" fill="rgb(0,0,0)" />
	<circle cx="276" cy="498" r="5.55556" fill="rgb(0,0,0)" />
	<circle cx="255" cy="506" r="6.48148" fill="rgb(0,0,0)" />
	<circle cx="77" cy="198" r="3.44828" fill="rgb(0,0,0)" />
	<circle cx="355" cy="390" r="3.31754" fill="rgb(0,0,0)" />
	<circle cx="51" cy="95" r="2.82258" fill="rgb(0,0,0)" />
	<circle cx="234" cy="328" r="2.88066" fill="rgb(0,0,0)" />
	<circle cx="466" cy="485" r="4.63576" fill="rgb(0,0,0)" />
	<circle cx="39" cy="569" r="6.48148" fill="rgb(0,0,0)" />
	<circle cx="437" cy="328" r="2.30263" fill="rgb(0,0,0)" />
	<circle cx="204" cy="112" r="3.91061" fill="rgb(0,0,0)" />
	<circle cx="155" cy="420" r="5.55556" fill="rgb(0,0,0)" />
	<circle cx="153" cy="274" r="4.66667" fill="rgb(0,0,0)" />
	<circle cx="401" cy="536" r="5.88235" fill="rgb(0,0,0)" />
	<circle cx="517" cy="590" r="5.6" fill="rgb(0,0,0)" />
	<circle cx="377" cy="319" r="2.42215" fill="rgb(0,0,0)" />
	<circle cx="332" cy="560" r="6.36364" fill="rgb(0,0,0)" />
	<circle cx="415" cy="255" r="3.68421" fill="rgb(0,0,0)" />
	<circle cx="228" cy="206" r="3.48259" fill="rgb(0,0,0)" />
	<circle cx="333" cy="394" r="3.25581" fill="rgb(0,0,0)" />
	<circle cx="63" cy="282" r="3.30189" fill="rgb(0,0,0)" />
	<circle cx="476" cy="429" r="2.83401" fill="rgb(0,0,0)" />
	<circle cx="15" cy="353" r="2.82258" fill="rgb(0,0,0)" />
	<circle cx="152" cy="292" r="4.43038" fill="rgb(0,0,0)" />
	<circle cx="168" cy="592" r="6.66667" fill="rgb(0,0,0)" />
	<circle cx="456" cy="20" r="4.26829" fill="rgb(0,0,0)" />
	<circle cx="247" cy="117" r="3.44828" fill="rgb(0,0,0)" />
	<circle cx="185" cy="362" r="4.14201" fill="rgb(0,0,0)" />
	<circle cx="19" cy="528" r="6.42202" fill="rgb(0,0,0)" />
	<circle cx="12" cy="65" r="2.7668" fill="rgb(0,0,0)" />
	<circle cx="209" cy="531" r="3.93258" fill="rgb(0,0,0)" />
	<circle cx="9" cy="509" r="6.42202" fill="rgb(0,0,0)" />
	<circle cx="132" cy="524" r="6.73077" fill="rgb(0,0,0)" />
	<circle cx="411" cy="306" r="2.85714" fill="rgb(0,0,0)" />
	<circle cx="129" cy="258" r="4.7619" fill="rgb(0,0,0)" />
	<circle cx="318" cy="353" r="3.91061" fill="rgb(0,0,0)" />
	<circle cx="377" cy="486" r="3.125" fill="rgb(0,0,0)" />
	<circle cx="10" cy="484" r="6.42202" fill="rgb(0,0,0)" />
	<circle cx="424" cy="570" r="5.22388" fill="rgb(0,0,0)" />
	<circle cx="104" cy="44" r="2.7668" fill="rgb(0,0,0)" />
	<circle cx="67" cy="587" r="6.54206" fill="rgb(0,0,0)" />
	<circle cx="323" cy="534" r="4.26829" fill="rgb(0,0,0)" />
	<circle cx="177" cy="200" r="3.48259" fill="rgb(0,0,0)" />
	<circle cx="244" cy="544" r="6.60377" fill="rgb(0,0,0)" />
	<circle cx="337" cy="327" r="3.36538" fill="rgb(0,0,0)" />
	<circle cx="249" cy="463" r="4.11765" fill="rgb(0,0,0)" />
	<circle cx="136" cy="18" r="2.68199" fill="rgb(0,0,0)" />
	<circle cx="466" cy="551" r="5.55556" fill="rgb(0,0,0)" />
	<circle cx="132" cy="497" r="3.31754" fill="rgb(0,0,0)" />
	<circle cx="253" cy="376" r="3.22581" fill="rgb(0,0,0)" />
	<circle cx="135" cy="191" r="3.7234" fill="rgb(0,0,0)" />
	<circle cx="333" cy="591" r="6.30631" fill="rgb(0,0,0)" />
	<circle cx="200" cy="439" r="4.69799" fill="rgb(0,0,0)" />
	<circle cx="116" cy="367" r="4.14201" fill="rgb(0,0,0)" />
	<circle cx="283" cy="114" r="2.7668" fill="rgb(0,0,0)" />
	<circle cx="172" cy="455" r="5.55556" fill="rgb(0,0,0)" />
	<circle cx="74" cy="309" r="3.7037" fill="rgb(0,0,0)" />
	<circle cx="490" cy="589" r="6.03448" fill="rgb(0,0,0)" />
	<circle cx="293" cy="401" r="4.04624" fill="rgb(0,0,0)" />
</svg>
