<?xml version="1.0" standalone="no" ?>
<!DOCTYPE svg PUBLIC "-//W3C//DTD SVG 1.1//EN" "http://www.w3.org/Graphics/SVG/1.1/DTD/svg11.dtd">
<svg width="400px" height="400px" xmlns="http://www.w3.org/2000/svg" version="1.1" >
	<circle cx="334" cy="88" r="14.4" fill="rgb(32,22,19)" />
	<circle cx="226" cy="230" r="7.17131" fill="rgb(215,127,103)" />
	<circle cx="265" cy="110" r="6.2069" fill="rgb(210,185,164)" />
	<circle cx="267" cy="270" r="13.7405" fill="rgb(37,29,24)" />
	<circle cx="218" cy="375" r="7.37705" fill="rgb(218,120,78)" />
	<circle cx="145" cy="164" r="9.32642" fill="rgb(129,77,82)" />
	<circle cx="107" cy="272" r="9.78261" fill="rgb(81,79,115)" />
	<circle cx="9" cy="335" r="8.78049" fill="rgb(107,104,103)" />
	<circle cx="379" cy="290" r="5.92105" fill="rgb(220,204,156)" />
	<circle cx="168" cy="164" r="12.4138" fill="rgb(50,40,59)" />
	<circle cx="390" cy="147" r="6.92308" fill="rgb(193,150,121)" />
	<circle cx="321" cy="347" r="7.69231" fill="rgb(155,130,102)" />
	<circle cx="374" cy="157" r="6.76692" fill="rgb(198,157,130)" />
	<circle cx="365" cy="77" r="14.0625" fill="rgb(36,25,19)" />
	<circle cx="328" cy="232" r="6.97674" fill="rgb(191,150,117)" />
	<circle cx="60" cy="60" r="9.83607" fill="rgb(132,66,43)" />
	<circle cx="99" cy="331" r="12.4138" fill="rgb(43,43,59)" />
	<circle cx="360" cy="19" r="8.18182" fill="rgb(172,104,68)" />
	<circle cx="207" cy="320" r="7.56302" fill="rgb(204,114,84)" />
	<circle cx="127" cy="66" r="8.57143" fill="rgb(167,91,61)" />
	<circle cx="148" cy="203" r="13.3333" fill="rgb(40,32,42)" />
	<circle cx="41" cy="12" r="7.11462" fill="rgb(212,137,85)" />
	<circle cx="6" cy="278" r="12.9496" fill="rgb(64,30,15)" />
	<circle cx="119" cy="204" r="11.465" fill="rgb(58,52,82)" />
	<circle cx="336" cy="120" r="14.4" fill="rgb(32,23,16)" />
	<circle cx="170" cy="148" r="9.47368" fill="rgb(113,77,94)" />
	<circle cx="174" cy="381" r="8.57143" fill="rgb(174,88,52)" />
	<circle cx="130" cy="213" r="10.3448" fill="rgb(70,70,105)" />
	<circle cx="9" cy="126" r="9.57447" fill="rgb(143,70,40)" />
	<circle cx="275" cy="244" r="13.7405" fill="rgb(45,26,20)" />
	<circle cx="296" cy="7" r="6.89655" fill="rgb(218,146,89)" />
	<circle cx="391" cy="49" r="14.5161" fill="rgb(33,21,14)" />
	<circle cx="75" cy="20" r="9.09091" fill="rgb(156,79,45)" />
	<circle cx="57" cy="19" r="9.57447" fill="rgb(142,70,40)" />
	<circle cx="89" cy="41" r="8.33333" fill="rgb(183,93,57)" />
	<circle cx="321" cy="35" r="7.25806" fill="rgb(207,131,81)" />
	<circle cx="40" cy="253" r="6.87023" fill="rgb(218,146,95)" />
	<circle cx="161" cy="374" r="9.89011" fill="rgb(131,66,34)" />
	<circle cx="76" cy="6" r="9" fill="rgb(155,82,50)" />
	<circle cx="49" cy="74" r="8.53081" fill="rgb(170,93,53)" />
	<circle cx="271" cy="89" r="7.00389" fill="rgb(221,137,94)" />
	<circle cx="374" cy="245" r="5.80645" fill="rgb(230,211,153)" />
	<circle cx="114" cy="147" r="7.82609" fill="rgb(188,111,74)" />
	<circle cx="109" cy="310" r="8.91089" fill="rgb(90,99,148)" />
	<circle cx="302" cy="189" r="12.8571" fill="rgb(50,36,31)" />
	<circle cx="110" cy="326" r="10.1695" fill="rgb(71,73,114)" />
	<circle cx="208" cy="247" r="6.76692" fill="rgb(226,144,119)" />
	<circle cx="140" cy="46" r="7.86026" fill="rgb(181,110,86)" />
	<circle cx="116" cy="119" r="8.86699" fill="rgb(166,81,53)" />
	<circle cx="3" cy="391" r="13.3333" fill="rgb(43,33,21)" />
	<circle cx="92" cy="356" r="13.4328" fill="rgb(33,34,36)" />
	<circle cx="333" cy="307" r="8.07175" fill="rgb(144,117,94)" />
	<circle cx="158" cy="216" r="13.2353" fill="rgb(43,35,25)" />
	<circle cx="166" cy="63" r="7.31707" fill="rgb(185,133,111)" />
	<circle cx="27" cy="317" r="7.43802" fill="rgb(192,128,86)" />
	<circle cx="174" cy="194" r="8.49057" fill="rgb(131,106,95)" />
	<circle cx="231" cy="184" r="6.18557" fill="rgb(229,178,159)" />
	<circle cx="66" cy="191" r="9.42408" fill="rgb(145,71,48)" />
	<circle cx="352" cy="6" r="8.21918" fill="rgb(169,102,68)" />
	<circle cx="22" cy="23" r="6.66667" fill="rgb(226,155,97)" />
	<circle cx="60" cy="389" r="14.1732" fill="rgb(28,27,26)" />
	<circle cx="9" cy="85" r="10.0559" fill="rgb(127,62,35)" />
	<circle cx="67" cy="352" r="13.8462" fill="rgb(30,31,30)" />
	<circle cx="377" cy="59" r="14.0625" fill="rgb(34,26,20)" />
	<circle cx="133" cy="357" r="10.6509" fill="rgb(67,67,83)" />
	<circle cx="55" cy="307" r="8.65385" fill="rgb(137,97,82)" />
	<circle cx="339" cy="67" r="9.09091" fill="rgb(140,84,57)" />
	<circle cx="285" cy="94" r="8.86699" fill="rgb(156,86,55)" />
	<circle cx="130" cy="242" r="10.1695" fill="rgb(101,69,58)" />
	<circle cx="187" cy="302" r="11.0429" fill="rgb(100,50,31)" />
	<circle cx="229" cy="212" r="8.10811" fill="rgb(195,94,71)" />
	<circle cx="132" cy="161" r="8.07175" fill="rgb(175,102,94)" />
	<circle cx="91" cy="391" r="10.9756" fill="rgb(62,61,83)" />
	<circle cx="288" cy="219" r="9.42408" fill="rgb(110,84,82)" />
	<circle cx="123" cy="279" r="8.07175" fill="rgb(143,115,113)" />
	<circle cx="87" cy="253" r="11.0429" fill="rgb(58,59,95)" />
	<circle cx="90" cy="8" r="8.25688" fill="rgb(179,98,61)" />
	<circle cx="390" cy="208" r="7.05882" fill="rgb(177,151,122)" />
	<circle cx="61" cy="285" r="9.83607" fill="rgb(115,68,74)" />
	<circle cx="308" cy="342" r="7.37705" fill="rgb(172,138,105)" />
	<circle cx="319" cy="170" r="14.4" fill="rgb(36,21,12)" />
	<circle cx="393" cy="21" r="14.2857" fill="rgb(34,23,17)" />
	<circle cx="176" cy="10" r="7.82609" fill="rgb(193,110,71)" />
	<circle cx="225" cy="338" r="7.11462" fill="rgb(216,131,97)" />
	<circle cx="276" cy="260" r="12.2449" fill="rgb(66,41,28)" />
	<circle cx="160" cy="7" r="7.72532" fill="rgb(195,113,76)" />
	<circle cx="297" cy="46" r="7.11462" fill="rgb(215,134,86)" />
	<circle cx="74" cy="391" r="12.6761" fill="rgb(43,40,49)" />
	<circle cx="325" cy="393" r="8.37209" fill="rgb(167,99,61)" />
	<circle cx="147" cy="392" r="10.2857" fill="rgb(127,59,22)" />
	<circle cx="314" cy="71" r="7.22892" fill="rgb(218,126,83)" />
	<circle cx="210" cy="173" r="6.71642" fill="rgb(183,162,163)" />
	<circle cx="100" cy="54" r="8.29493" fill="rgb(183,95,59)" />
	<circle cx="73" cy="298" r="12.2449" fill="rgb(49,44,55)" />
	<circle cx="164" cy="316" r="13.6364" fill="rgb(40,30,26)" />
	<circle cx="30" cy="387" r="7.00389" fill="rgb(208,143,92)" />
	<circle cx="181" cy="367" r="8.91089" fill="rgb(159,83,52)" />
	<circle cx="63" cy="362" r="14.6341" fill="rgb(25,22,23)" />
	<circle cx="322" cy="370" r="14.4" fill="rgb(34,22,12)" />
	<circle cx="210" cy="140" r="9.04523" fill="rgb(111,92,104)" />
	<circle cx="322" cy="378" r="10.9756" fill="rgb(89,55,40)" />
	<circle cx="158" cy="76" r="7.5" fill="rgb(189,124,99)" />
	<circle cx="212" cy="213" r="7.56302" fill="rgb(176,123,118)" />
	<circle cx="189" cy="342" r="8.91089" fill="rgb(160,82,51)" />
	<circle cx="376" cy="46" r="14.0625" fill="rgb(39,25,20)" />
	<circle cx="180" cy="213" r="7.00389" fill="rgb(188,146,125)" />
	<circle cx="196" cy="9" r="7.72532" fill="rgb(195,112,73)" />
	<circle cx="7" cy="245" r="11.25" fill="rgb(94,48,32)" />
	<circle cx="179" cy="244" r="8.57143" fill="rgb(181,85,55)" />
	<circle cx="139" cy="225" r="12.4138" fill="rgb(56,40,38)" />
	<circle cx="57" cy="145" r="10.3448" fill="rgb(124,57,32)" />
	<circle cx="194" cy="288" r="8.4507" fill="rgb(183,88,57)" />
	<circle cx="192" cy="181" r="7.2" fill="rgb(174,143,130)" />
	<circle cx="85" cy="233" r="10.9756" fill="rgb(66,58,87)" />
	<circle cx="349" cy="341" r="6.66667" fill="rgb(206,165,107)" />
	<circle cx="107" cy="66" r="8.25688" fill="rgb(185,95,61)" />
	<circle cx="148" cy="221" r="14.6341" fill="rgb(29,21,19)" />
	<circle cx="133" cy="177" r="9.62567" fill="rgb(126,72,63)" />
	<circle cx="17" cy="287" r="10.2273" fill="rgb(116,63,41)" />
	<circle cx="18" cy="237" r="11.3208" fill="rgb(98,47,24)" />
	<circle cx="159" cy="197" r="13.4328" fill="rgb(40,30,39)" />
	<circle cx="394" cy="320" r="9.78261" fill="rgb(124,71,45)" />
	<circle cx="86" cy="92" r="8.82353" fill="rgb(164,83,52)" />
	<circle cx="239" cy="344" r="6.61765" fill="rgb(220,157,125)" />
	<circle cx="291" cy="25" r="6.84411" fill="rgb(220,148,94)" />
	<circle cx="107" cy="41" r="8" fill="rgb(193,102,65)" />
	<circle cx="305" cy="208" r="14.1732" fill="rgb(38,24,15)" />
	<circle cx="370" cy="132" r="6.79245" fill="rgb(202,154,125)" />
	<circle cx="105" cy="226" r="11.1111" fill="rgb(60,58,87)" />
	<circle cx="375" cy="14" r="8.61244" fill="rgb(159,93,63)" />
	<circle cx="135" cy="192" r="12.4138" fill="rgb(45,42,62)" />
	<circle cx="340" cy="293" r="7.53138" fill="rgb(157,136,111)" />
	<circle cx="175" cy="294" r="12.6761" fill="rgb(65,36,19)" />
	<circle cx="245" cy="57" r="8.86699" fill="rgb(158,83,56)" />
	<circle cx="135" cy="289" r="13.8462" fill="rgb(34,28,29)" />
	<circle cx="295" cy="285" r="8.03571" fill="rgb(154,116,90)" />
	<circle cx="104" cy="288" r="8.82353" fill="rgb(95,99,150)" />
	<circle cx="307" cy="134" r="8.25688" fill="rgb(154,106,86)" />
	<circle cx="312" cy="199" r="13.8462" fill="rgb(41,27,22)" />
	<circle cx="86" cy="68" r="8.78049" fill="rgb(165,84,51)" />
	<circle cx="197" cy="126" r="6.66667" fill="rgb(201,160,143)" />
	<circle cx="187" cy="25" r="8" fill="rgb(190,104,67)" />
	<circle cx="104" cy="378" r="13.1387" fill="rgb(37,36,43)" />
	<circle cx="326" cy="265" r="7.14286" fill="rgb(182,144,113)" />
	<circle cx="308" cy="251" r="7.65957" fill="rgb(168,126,93)" />
	<circle cx="276" cy="209" r="14.5161" fill="rgb(40,19,11)" />
	<circle cx="329" cy="200" r="7.14286" fill="rgb(185,143,112)" />
	<circle cx="71" cy="101" r="9.32642" fill="rgb(151,73,42)" />
	<circle cx="169" cy="112" r="6.56934" fill="rgb(206,163,145)" />
	<circle cx="314" cy="369" r="11.7647" fill="rgb(73,47,28)" />
	<circle cx="383" cy="348" r="9.42408" fill="rgb(131,78,53)" />
	<circle cx="286" cy="323" r="12.5" fill="rgb(67,36,25)" />
	<circle cx="150" cy="183" r="12.8571" fill="rgb(47,36,44)" />
	<circle cx="11" cy="361" r="9.18367" fill="rgb(99,96,88)" />
	<circle cx="102" cy="256" r="9.67742" fill="rgb(78,83,122)" />
	<circle cx="341" cy="140" r="8.78049" fill="rgb(133,94,87)" />
	<circle cx="245" cy="209" r="6.64207" fill="rgb(211,156,141)" />
	<circle cx="146" cy="194" r="13.1387" fill="rgb(41,35,41)" />
	<circle cx="36" cy="286" r="6.84411" fill="rgb(216,147,102)" />
	<circle cx="284" cy="293" r="11.1801" fill="rgb(89,52,29)" />
	<circle cx="200" cy="46" r="6.42857" fill="rgb(201,175,154)" />
	<circle cx="394" cy="382" r="12.4138" fill="rgb(61,42,24)" />
	<circle cx="276" cy="220" r="13.2353" fill="rgb(62,27,14)" />
	<circle cx="244" cy="6" r="8.41121" fill="rgb(167,96,66)" />
	<circle cx="93" cy="343" r="13.9535" fill="rgb(31,28,29)" />
	<circle cx="60" cy="326" r="13.7405" fill="rgb(34,30,27)" />
	<circle cx="384" cy="80" r="7.79221" fill="rgb(159,122,103)" />
	<circle cx="370" cy="203" r="7.03125" fill="rgb(185,149,120)" />
	<circle cx="69" cy="47" r="9.375" fill="rgb(147,73,42)" />
	<circle cx="363" cy="179" r="6.87023" fill="rgb(190,154,126)" />
	<circle cx="132" cy="255" r="10.5882" fill="rgb(82,65,65)" />
	<circle cx="164" cy="184" r="13.0435" fill="rgb(44,33,49)" />
	<circle cx="144" cy="367" r="15" fill="rgb(28,18,11)" />
	<circle cx="277" cy="190" r="15" fill="rgb(31,16,9)" />
	<circle cx="52" cy="33" r="9.27835" fill="rgb(152,75,42)" />
	<circle cx="61" cy="80" r="9.78261" fill="rgb(135,66,42)" />
	<circle cx="147" cy="86" r="7.72532" fill="rgb(184,116,90)" />
	<circle cx="321" cy="57" r="7.28745" fill="rgb(213,127,80)" />
	<circle cx="368" cy="364" r="10.1124" fill="rgb(119,65,42)" />
	<circle cx="260" cy="279" r="14.4" fill="rgb(32,23,16)" />
	<circle cx="191" cy="318" r="9.13706" fill="rgb(149,79,53)" />
	<circle cx="305" cy="27" r="6.89655" fill="rgb(218,145,96)" />
	<circle cx="67" cy="174" r="9.47368" fill="rgb(145,71,43)" />
	<circle cx="262" cy="291" r="13.4328" fill="rgb(45,31,22)" />
	<circle cx="345" cy="80" r="13.9535" fill="rgb(41,26,19)" />
	<circle cx="91" cy="28" r="8.29493" fill="rgb(180,96,58)" />
	<circle cx="194" cy="229" r="6.87023" fill="rgb(222,139,121)" />
	<circle cx="334" cy="111" r="13.9535" fill="rgb(35,26,24)" />
	<circle cx="271" cy="148" r="6.31579" fill="rgb(193,182,175)" />
	<circle cx="175" cy="84" r="6.52174" fill="rgb(200,168,149)" />
	<circle cx="10" cy="9" r="6.81818" fill="rgb(221,147,95)" />
	<circle cx="147" cy="8" r="7.75862" fill="rgb(197,111,74)" />
	<circle cx="171" cy="276" r="11.465" fill="rgb(89,47,29)" />
	<circle cx="208" cy="25" r="7.86026" fill="rgb(191,107,73)" />
	<circle cx="152" cy="210" r="14.2857" fill="rgb(34,22,21)" />
	<circle cx="23" cy="180" r="7.40741" fill="rgb(201,125,78)" />
	<circle cx="324" cy="317" r="8.1448" fill="rgb(147,113,91)" />
	<circle cx="194" cy="145" r="9.32642" fill="rgb(98,85,121)" />
	<circle cx="147" cy="259" r="9.94475" fill="rgb(95,77,64)" />
	<circle cx="354" cy="155" r="6.64207" fill="rgb(203,162,130)" />
	<circle cx="292" cy="240" r="9.83607" fill="rgb(101,76,69)" />
	<circle cx="206" cy="352" r="7.46888" fill="rgb(216,116,77)" />
	<circle cx="391" cy="8" r="9.375" fill="rgb(131,79,55)" />
	<circle cx="327" cy="131" r="14.5161" fill="rgb(31,22,18)" />
	<circle cx="280" cy="310" r="10.7143" fill="rgb(94,60,44)" />
	<circle cx="393" cy="360" r="10.4651" fill="rgb(97,64,50)" />
	<circle cx="292" cy="337" r="8.07175" fill="rgb(155,114,81)" />
	<circle cx="18" cy="111" r="8.65385" fill="rgb(172,87,46)" />
	<circle cx="9" cy="44" r="6.94981" fill="rgb(220,142,86)" />
	<circle cx="145" cy="130" r="7.56302" fill="rgb(190,120,95)" />
	<circle cx="192" cy="163" r="12.5" fill="rgb(48,40,55)" />
	<circle cx="388" cy="189" r="7.17131" fill="rgb(179,142,119)" />
	<circle cx="390" cy="61" r="10.2857" fill="rgb(92,70,56)" />
	<circle cx="161" cy="131" r="7.28745" fill="rgb(193,131,112)" />
	<circle cx="279" cy="60" r="7.40741" fill="rgb(206,123,85)" />
	<circle cx="224" cy="204" r="9.23077" fill="rgb(146,76,55)" />
	<circle cx="261" cy="72" r="7.92952" fill="rgb(186,107,74)" />
	<circle cx="296" cy="170" r="14.5161" fill="rgb(37,20,13)" />
	<circle cx="190" cy="393" r="7.62712" fill="rgb(212,110,67)" />
	<circle cx="72" cy="87" r="9.42408" fill="rgb(143,73,45)" />
	<circle cx="257" cy="387" r="6.59341" fill="rgb(218,159,124)" />
	<circle cx="56" cy="48" r="10.3448" fill="rgb(124,57,32)" />
	<circle cx="145" cy="29" r="7.82609" fill="rgb(198,107,73)" />
	<circle cx="342" cy="375" r="7.5" fill="rgb(176,134,77)" />
	<circle cx="78" cy="361" r="13.3333" fill="rgb(35,34,40)" />
	<circle cx="372" cy="352" r="9.62567" fill="rgb(136,71,41)" />
	<circle cx="7" cy="264" r="11.6129" fill="rgb(94,42,21)" />
	<circle cx="240" cy="37" r="8.21918" fill="rgb(183,97,67)" />
	<circle cx="25" cy="344" r="8.73786" fill="rgb(153,92,55)" />
	<circle cx="121" cy="166" r="8.29493" fill="rgb(171,98,78)" />
	<circle cx="5" cy="292" r="14.2857" fill="rgb(39,21,15)" />
	<circle cx="308" cy="392" r="9.32642" fill="rgb(115,87,63)" />
	<circle cx="252" cy="130" r="5.98007" fill="rgb(211,199,185)" />
	<circle cx="72" cy="330" r="13.8462" fill="rgb(32,29,30)" />
	<circle cx="353" cy="123" r="7.9646" fill="rgb(159,114,103)" />
	<circle cx="329" cy="123" r="14.4" fill="rgb(31,23,19)" />
	<circle cx="228" cy="248" r="7.92952" fill="rgb(200,101,72)" />
	<circle cx="121" cy="153" r="8.10811" fill="rgb(177,102,81)" />
	<circle cx="263" cy="211" r="9.67742" fill="rgb(119,73,65)" />
	<circle cx="385" cy="372" r="9.94475" fill="rgb(105,73,61)" />
	<circle cx="164" cy="301" r="13.7405" fill="rgb(44,26,18)" />
	<circle cx="79" cy="344" r="12.1622" fill="rgb(48,46,56)" />
	<circle cx="108" cy="392" r="11.5385" fill="rgb(55,54,71)" />
	<circle cx="294" cy="85" r="14.6341" fill="rgb(39,17,9)" />
	<circle cx="315" cy="214" r="8.53081" fill="rgb(138,103,84)" />
	<circle cx="129" cy="83" r="8.41121" fill="rgb(171,95,66)" />
	<circle cx="108" cy="346" r="12" fill="rgb(47,48,69)" />
	<circle cx="373" cy="222" r="6.66667" fill="rgb(197,165,122)" />
	<circle cx="363" cy="57" r="14.1732" fill="rgb(37,24,14)" />
	<circle cx="7" cy="184" r="9.27835" fill="rgb(149,76,44)" />
	<circle cx="217" cy="8" r="7.89474" fill="rgb(190,108,71)" />
	<circle cx="144" cy="64" r="8.07175" fill="rgb(172,106,82)" />
	<circle cx="283" cy="271" r="12.5874" fill="rgb(67,36,19)" />
	<circle cx="301" cy="226" r="14.4" fill="rgb(39,21,13)" />
	<circle cx="313" cy="19" r="7.00389" fill="rgb(212,141,92)" />
	<circle cx="272" cy="298" r="11.6129" fill="rgb(78,48,33)" />
	<circle cx="324" cy="332" r="7.65957" fill="rgb(159,128,106)" />
	<circle cx="66" cy="31" r="9.13706" fill="rgb(155,78,46)" />
	<circle cx="47" cy="187" r="7.40741" fill="rgb(197,127,82)" />
	<circle cx="102" cy="196" r="8.65385" fill="rgb(153,93,67)" />
	<circle cx="80" cy="110" r="9.18367" fill="rgb(159,75,40)" />
	<circle cx="307" cy="324" r="7.28745" fill="rgb(174,139,111)" />
	<circle cx="296" cy="180" r="13.5338" fill="rgb(45,28,24)" />
	<circle cx="263" cy="178" r="6.40569" fill="rgb(209,171,158)" />
	<circle cx="176" cy="336" r="9.94475" fill="rgb(129,65,37)" />
	<circle cx="294" cy="308" r="8.33333" fill="rgb(148,106,84)" />
	<circle cx="139" cy="277" r="10.7143" fill="rgb(78,65,55)" />
	<circle cx="211" cy="196" r="8.49057" fill="rgb(164,93,73)" />
	<circle cx="358" cy="87" r="13.9535" fill="rgb(39,26,20)" />
	<circle cx="133" cy="110" r="8.10811" fill="rgb(182,101,76)" />
	<circle cx="143" cy="146" r="7.86026" fill="rgb(181,110,90)" />
	<circle cx="248" cy="363" r="6.59341" fill="rgb(219,159,122)" />
	<circle cx="118" cy="256" r="12.1622" fill="rgb(59,43,41)" />
	<circle cx="177" cy="44" r="6.64207" fill="rgb(193,164,147)" />
	<circle cx="51" cy="364" r="7.89474" fill="rgb(165,117,84)" />
	<circle cx="141" cy="287" r="13.5338" fill="rgb(41,31,23)" />
	<circle cx="166" cy="259" r="11.6129" fill="rgb(81,46,31)" />
	<circle cx="170" cy="394" r="7.9646" fill="rgb(201,101,57)" />
	<circle cx="282" cy="110" r="6.06061" fill="rgb(208,194,180)" />
	<circle cx="150" cy="108" r="7.37705" fill="rgb(192,127,104)" />
	<circle cx="249" cy="292" r="11.465" fill="rgb(75,50,41)" />
	<circle cx="190" cy="103" r="6.1017" fill="rgb(212,190,176)" />
	<circle cx="227" cy="147" r="6.69145" fill="rgb(181,166,153)" />
	<circle cx="70" cy="68" r="9.42408" fill="rgb(146,72,46)" />
	<circle cx="210" cy="270" r="7.43802" fill="rgb(214,115,87)" />
	<circle cx="163" cy="334" r="13.6364" fill="rgb(41,29,22)" />
	<circle cx="180" cy="134" r="7.62712" fill="rgb(167,123,125)" />
	<circle cx="186" cy="265" r="7.86026" fill="rgb(208,101,67)" />
	<circle cx="251" cy="45" r="8.82353" fill="rgb(162,84,57)" />
	<circle cx="171" cy="355" r="9.32642" fill="rgb(147,75,44)" />
	<circle cx="218" cy="202" r="14.4" fill="rgb(56,14,3)" />
	<circle cx="335" cy="154" r="9.27835" fill="rgb(117,85,78)" />
	<circle cx="313" cy="45" r="7.28745" fill="rgb(211,129,78)" />
	<circle cx="57" cy="162" r="10.4046" fill="rgb(122,56,31)" />
	<circle cx="126" cy="28" r="7.86026" fill="rgb(197,106,71)" />
	<circle cx="129" cy="146" r="8" fill="rgb(179,106,84)" />
	<circle cx="387" cy="105" r="6.81818" fill="rgb(200,154,121)" />
	<circle cx="147" cy="379" r="14.2857" fill="rgb(39,23,8)" />
	<circle cx="7" cy="166" r="9.13706" fill="rgb(152,79,48)" />
	<circle cx="235" cy="18" r="8" fill="rgb(187,104,71)" />
	<circle cx="292" cy="261" r="9.375" fill="rgb(113,85,72)" />
	<circle cx="45" cy="53" r="7.46888" fill="rgb(206,122,70)" />
	<circle cx="183" cy="155" r="12.4138" fill="rgb(52,39,56)" />
	<circle cx="274" cy="200" r="12.0805" fill="rgb(80,39,22)" />
	<circle cx="350" cy="238" r="7.34694" fill="rgb(175,137,112)" />
	<circle cx="353" cy="100" r="14.2857" fill="rgb(36,22,16)" />
	<circle cx="345" cy="393" r="9.52381" fill="rgb(130,76,49)" />
	<circle cx="377" cy="333" r="9.32642" fill="rgb(140,77,50)" />
	<circle cx="177" cy="314" r="12.4138" fill="rgb(65,39,24)" />
	<circle cx="274" cy="23" r="6.79245" fill="rgb(218,149,106)" />
	<circle cx="367" cy="376" r="10.4651" fill="rgb(101,63,45)" />
	<circle cx="38" cy="96" r="7.17131" fill="rgb(212,133,82)" />
	<circle cx="304" cy="359" r="8.29493" fill="rgb(143,111,80)" />
	<circle cx="227" cy="318" r="6.81818" fill="rgb(214,147,117)" />
	<circle cx="277" cy="41" r="7.05882" fill="rgb(211,136,100)" />
	<circle cx="77" cy="244" r="10.0559" fill="rgb(83,71,107)" />
	<circle cx="84" cy="177" r="8.86699" fill="rgb(165,82,49)" />
	<circle cx="321" cy="183" r="10.7784" fill="rgb(83,61,54)" />
	<circle cx="102" cy="168" r="7.37705" fill="rgb(193,130,84)" />
	<circle cx="348" cy="219" r="7.05882" fill="rgb(187,147,114)" />
	<circle cx="131" cy="297" r="13.9535" fill="rgb(27,29,33)" />
	<circle cx="297" cy="68" r="8.29493" fill="rgb(174,98,67)" />
	<circle cx="390" cy="127" r="6.84411" fill="rgb(199,153,120)" />
	<circle cx="227" cy="126" r="6.42857" fill="rgb(200,173,164)" />
	<circle cx="74" cy="314" r="12" fill="rgb(53,47,60)" />
	<circle cx="282" cy="174" r="9.52381" fill="rgb(106,82,83)" />
	<circle cx="304" cy="372" r="9.62567" fill="rgb(120,78,51)" />
	<circle cx="151" cy="327" r="13.0435" fill="rgb(51,35,23)" />
	<circle cx="121" cy="227" r="11.25" fill="rgb(58,57,82)" />
	<circle cx="8" cy="302" r="13.9535" fill="rgb(40,25,16)" />
	<circle cx="98" cy="302" r="9.52381" fill="rgb(81,85,130)" />
	<circle cx="64" cy="253" r="9.57447" fill="rgb(131,71,67)" />
	<circle cx="337" cy="131" r="13.9535" fill="rgb(37,26,22)" />
	<circle cx="115" cy="82" r="8.73786" fill="rgb(166,86,55)" />
	<circle cx="348" cy="107" r="14.4" fill="rgb(36,21,16)" />
	<circle cx="205" cy="153" r="10.7143" fill="rgb(62,65,94)" />
	<circle cx="215" cy="107" r="5.94059" fill="rgb(213,201,192)" />
	<circle cx="177" cy="174" r="11.8421" fill="rgb(54,49,68)" />
	<circle cx="248" cy="244" r="6.71642" fill="rgb(216,150,136)" />
	<circle cx="36" cy="148" r="6.89655" fill="rgb(222,144,86)" />
	<circle cx="41" cy="123" r="7.2" fill="rgb(209,134,80)" />
	<circle cx="339" cy="253" r="7.2" fill="rgb(179,142,112)" />
	<circle cx="129" cy="122" r="7.9646" fill="rgb(183,105,80)" />
	<circle cx="320" cy="289" r="7.03125" fill="rgb(181,151,119)" />
	<circle cx="60" cy="241" r="9.04523" fill="rgb(139,82,83)" />
	<circle cx="123" cy="375" r="10.3448" fill="rgb(71,71,96)" />
	<circle cx="238" cy="273" r="7.17131" fill="rgb(209,129,113)" />
	<circle cx="324" cy="360" r="7.62712" fill="rgb(162,130,96)" />
	<circle cx="101" cy="89" r="8.07175" fill="rgb(180,105,67)" />
	<circle cx="108" cy="8" r="7.82609" fill="rgb(193,109,70)" />
	<circle cx="8" cy="145" r="9.27835" fill="rgb(151,75,45)" />
	<circle cx="139" cy="335" r="10.0559" fill="rgb(77,78,90)" />
	<circle cx="162" cy="206" r="14.1732" fill="rgb(32,25,27)" />
	<circle cx="83" cy="54" r="8.91089" fill="rgb(161,82,49)" />
	<circle cx="203" cy="203" r="12.3288" fill="rgb(79,36,14)" />
	<circle cx="387" cy="31" r="13.8462" fill="rgb(39,28,21)" />
	<circle cx="374" cy="391" r="9.52381" fill="rgb(110,82,70)" />
	<circle cx="296" cy="132" r="6.1017" fill="rgb(204,192,183)" />
	<circle cx="195" cy="380" r="7.43802" fill="rgb(215,117,76)" />
	<circle cx="306" cy="164" r="13.5338" fill="rgb(47,28,19)" />
	<circle cx="124" cy="395" r="11.0429" fill="rgb(62,60,78)" />
	<circle cx="329" cy="11" r="6.4982" fill="rgb(213,170,114)" />
	<circle cx="20" cy="160" r="8.21918" fill="rgb(185,98,53)" />
	<circle cx="157" cy="45" r="7.40741" fill="rgb(180,131,115)" />
	<circle cx="152" cy="310" r="13.4328" fill="rgb(45,31,23)" />
	<circle cx="87" cy="293" r="10.4651" fill="rgb(63,69,106)" />
	<circle cx="61" cy="6" r="9.27835" fill="rgb(146,76,53)" />
	<circle cx="152" cy="296" r="13.7405" fill="rgb(40,28,20)" />
	<circle cx="6" cy="209" r="9.62567" fill="rgb(138,70,41)" />
	<circle cx="304" cy="148" r="8.21918" fill="rgb(142,112,92)" />
	<circle cx="213" cy="391" r="7.25806" fill="rgb(220,123,87)" />
	<circle cx="350" cy="197" r="6.81818" fill="rgb(196,156,120)" />
	<circle cx="160" cy="285" r="12.9496" fill="rgb(56,34,21)" />
	<circle cx="359" cy="311" r="6.47482" fill="rgb(200,176,127)" />
	<circle cx="149" cy="283" r="14.0625" fill="rgb(39,25,16)" />
	<circle cx="343" cy="93" r="13.8462" fill="rgb(42,26,21)" />
	<circle cx="267" cy="230" r="8.61244" fill="rgb(171,85,64)" />
	<circle cx="8" cy="67" r="8.86699" fill="rgb(161,85,47)" />
	<circle cx="263" cy="260" r="10.9756" fill="rgb(90,55,45)" />
	<circle cx="286" cy="373" r="6.1017" fill="rgb(211,190,177)" />
	<circle cx="74" cy="260" r="10.9091" fill="rgb(70,57,87)" />
	<circle cx="366" cy="100" r="8.37209" fill="rgb(144,105,94)" />
	<circle cx="276" cy="281" r="11.8421" fill="rgb(78,44,24)" />
	<circle cx="123" cy="335" r="8.53081" fill="rgb(101,108,149)" />
	<circle cx="224" cy="35" r="7.9646" fill="rgb(191,104,71)" />
	<circle cx="325" cy="156" r="14.1732" fill="rgb(38,24,15)" />
	<circle cx="281" cy="249" r="12.9496" fill="rgb(62,32,17)" />
	<circle cx="126" cy="310" r="9.04523" fill="rgb(94,97,126)" />
	<circle cx="152" cy="349" r="12.4138" fill="rgb(57,41,31)" />
	<circle cx="228" cy="166" r="6.27178" fill="rgb(200,184,169)" />
	<circle cx="111" cy="26" r="7.9646" fill="rgb(192,104,68)" />
	<circle cx="99" cy="365" r="13.8462" fill="rgb(30,29,30)" />
	<circle cx="140" cy="209" r="13.2353" fill="rgb(40,34,40)" />
	<circle cx="60" cy="114" r="9.89011" fill="rgb(135,64,36)" />
	<circle cx="94" cy="126" r="7.43802" fill="rgb(194,128,78)" />
	<circle cx="124" cy="7" r="7.75862" fill="rgb(196,111,72)" />
	<circle cx="278" cy="233" r="13.0435" fill="rgb(58,31,21)" />
	<circle cx="78" cy="35" r="9.04523" fill="rgb(158,79,46)" />
	<circle cx="394" cy="39" r="14.7541" fill="rgb(32,20,10)" />
	<circle cx="75" cy="221" r="8.73786" fill="rgb(138,92,93)" />
	<circle cx="391" cy="394" r="12.2449" fill="rgb(66,41,23)" />
	<circle cx="226" cy="360" r="7.34694" fill="rgb(214,123,82)" />
	<circle cx="126" cy="386" r="10.6509" fill="rgb(66,67,91)" />
	<circle cx="119" cy="190" r="8.95522" fill="rgb(138,86,83)" />
	<circle cx="46" cy="382" r="7.46888" fill="rgb(180,131,90)" />
	<circle cx="137" cy="380" r="15" fill="rgb(24,20,13)" />
	<circle cx="8" cy="226" r="10.4046" fill="rgb(117,57,32)" />
	<circle cx="260" cy="56" r="7.9646" fill="rgb(188,105,74)" />
	<circle cx="196" cy="208" r="11.0429" fill="rgb(105,48,34)" />
	<circle cx="7" cy="102" r="9.62567" fill="rgb(141,69,40)" />
	<circle cx="137" cy="393" r="13.4328" fill="rgb(50,29,16)" />
	<circle cx="87" cy="207" r="8.69565" fill="rgb(146,93,72)" />
	<circle cx="69" cy="375" r="13.9535" fill="rgb(31,28,28)" />
	<circle cx="137" cy="14" r="7.75862" fill="rgb(198,111,71)" />
	<circle cx="266" cy="246" r="9.13706" fill="rgb(147,78,61)" />
	<circle cx="249" cy="89" r="6.22837" fill="rgb(196,187,182)" />
	<circle cx="308" cy="233" r="8.86699" fill="rgb(131,94,73)" />
	<circle cx="273" cy="161" r="9.23077" fill="rgb(108,88,96)" />
	<circle cx="235" cy="381" r="7.28745" fill="rgb(215,125,81)" />
	<circle cx="113" cy="134" r="7.86026" fill="rgb(195,109,63)" />
	<circle cx="91" cy="273" r="10.3448" fill="rgb(68,70,110)" />
	<circle cx="78" cy="126" r="9.42408" fill="rgb(151,71,37)" />
	<circle cx="46" cy="342" r="7.05882" fill="rgb(200,143,100)" />
	<circle cx="13" cy="197" r="9.52381" fill="rgb(144,70,41)" />
	<circle cx="157" cy="155" r="9.09091" fill="rgb(129,83,88)" />
	<circle cx="335" cy="174" r="7.46888" fill="rgb(169,133,109)" />
	<circle cx="154" cy="272" r="13.3333" fill="rgb(55,29,16)" />
	<circle cx="354" cy="70" r="14.0625" fill="rgb(41,23,18)" />
	<circle cx="86" cy="375" r="12.8571" fill="rgb(40,39,46)" />
	<circle cx="312" cy="188" r="14.0625" fill="rgb(38,25,20)" />
	<circle cx="316" cy="158" r="13.8462" fill="rgb(43,26,18)" />
	<circle cx="390" cy="169" r="6.87023" fill="rgb(194,153,125)" />
	<circle cx="19" cy="258" r="9.78261" fill="rgb(129,68,45)" />
	<circle cx="60" cy="268" r="9.42408" fill="rgb(132,74,72)" />
	<circle cx="308" cy="176" r="13.2353" fill="rgb(50,31,22)" />
	<circle cx="153" cy="172" r="13.1387" fill="rgb(43,33,43)" />
	<circle cx="10" cy="312" r="9.89011" fill="rgb(99,76,68)" />
	<circle cx="327" cy="142" r="14.2857" fill="rgb(34,24,15)" />
	<circle cx="62" cy="207" r="9.72973" fill="rgb(142,66,37)" />
	<circle cx="12" cy="384" r="7.62712" fill="rgb(142,136,124)" />
	<circle cx="383" cy="317" r="10.7143" fill="rgb(103,57,37)" />
	<circle cx="210" cy="339" r="7.5" fill="rgb(213,115,76)" />
	<circle cx="157" cy="388" r="9.42408" fill="rgb(150,72,35)" />
	<circle cx="141" cy="315" r="12.5874" fill="rgb(53,39,39)" />
	<circle cx="372" cy="35" r="13.4328" fill="rgb(47,31,19)" />
	<circle cx="256" cy="15" r="8" fill="rgb(178,106,79)" />
	<circle cx="109" cy="214" r="11.9205" fill="rgb(51,46,76)" />
	<circle cx="63" cy="341" r="14.4" fill="rgb(27,24,22)" />
	<circle cx="312" cy="382" r="9.42408" fill="rgb(116,85,61)" />
	<circle cx="339" cy="106" r="14.1732" fill="rgb(38,24,17)" />
	<circle cx="98" cy="238" r="10.1695" fill="rgb(70,73,112)" />
	<circle cx="393" cy="339" r="9.57447" fill="rgb(119,77,60)" />
	<circle cx="372" cy="68" r="14.1732" fill="rgb(34,25,21)" />
	<circle cx="113" cy="242" r="14.4" fill="rgb(29,24,24)" />
	<circle cx="22" cy="213" r="8" fill="rgb(183,107,65)" />
	<circle cx="229" cy="199" r="7.53138" fill="rgb(201,116,96)" />
	<circle cx="161" cy="237" r="8.91089" fill="rgb(122,96,81)" />
	<circle cx="128" cy="134" r="7.9646" fill="rgb(179,108,84)" />
	<circle cx="332" cy="76" r="8.65385" fill="rgb(160,91,60)" />
	<circle cx="44" cy="221" r="6.94981" fill="rgb(214,144,92)" />
	<circle cx="57" cy="95" r="10.4046" fill="rgb(120,56,34)" />
	<circle cx="311" cy="305" r="7.89474" fill="rgb(159,119,92)" />
	<circle cx="219" cy="294" r="7.14286" fill="rgb(213,129,108)" />
	<circle cx="114" cy="362" r="10.8434" fill="rgb(58,65,92)" />
	<circle cx="258" cy="33" r="8.18182" fill="rgb(178,99,73)" />
	<circle cx="199" cy="364" r="7.37705" fill="rgb(216,118,82)" />
	<circle cx="79" cy="270" r="12.0805" fill="rgb(50,45,65)" />
	<circle cx="273" cy="6" r="6.84411" fill="rgb(217,148,96)" />
	<circle cx="316" cy="98" r="6.74157" fill="rgb(176,165,157)" />
	<circle cx="341" cy="276" r="7.34694" fill="rgb(170,138,109)" />
	<circle cx="241" cy="393" r="7.11462" fill="rgb(217,133,91)" />
	<circle cx="156" cy="362" r="13.8462" fill="rgb(49,25,9)" />
	<circle cx="28" cy="46" r="7.03125" fill="rgb(219,138,80)" />
	<circle cx="76" cy="154" r="9.47368" fill="rgb(149,71,38)" />
	<circle cx="141" cy="301" r="13.1387" fill="rgb(50,33,22)" />
	<circle cx="310" cy="272" r="7.03125" fill="rgb(192,148,106)" />
	<circle cx="164" cy="26" r="8" fill="rgb(193,102,63)" />
	<circle cx="299" cy="201" r="12.8571" fill="rgb(51,36,30)" />
	<circle cx="357" cy="388" r="10.5263" fill="rgb(97,63,45)" />
	<circle cx="221" cy="197" r="9.89011" fill="rgb(136,63,41)" />
	<circle cx="123" cy="49" r="7.9646" fill="rgb(192,103,69)" />
	<circle cx="344" cy="118" r="14.4" fill="rgb(35,21,17)" />
	<circle cx="135" cy="97" r="7.9646" fill="rgb(182,106,79)" />
	<circle cx="76" cy="282" r="12" fill="rgb(50,46,66)" />
	<circle cx="221" cy="63" r="6.06061" fill="rgb(206,194,186)" />
	<circle cx="60" cy="225" r="9.27835" fill="rgb(154,73,47)" />
	<circle cx="283" cy="77" r="8.1448" fill="rgb(176,102,72)" />
	<circle cx="92" cy="315" r="10.8434" fill="rgb(61,64,89)" />
	<circle cx="349" cy="43" r="7.43802" fill="rgb(176,134,93)" />
	<circle cx="82" cy="79" r="9" fill="rgb(158,81,49)" />
	<circle cx="98" cy="19" r="8.03571" fill="rgb(189,103,63)" />
	<circle cx="262" cy="319" r="6.66667" fill="rgb(185,166,148)" />
	<circle cx="85" cy="328" r="12.3288" fill="rgb(46,44,55)" />
	<circle cx="144" cy="235" r="13.7405" fill="rgb(37,29,23)" />
	<circle cx="313" cy="150" r="13.9535" fill="rgb(39,25,18)" />
	<circle cx="287" cy="194" r="9.78261" fill="rgb(102,77,75)" />
	<circle cx="117" cy="102" r="8.78049" fill="rgb(163,84,55)" />
	<circle cx="300" cy="215" r="13.7405" fill="rgb(43,27,19)" />
	<circle cx="25" cy="73" r="7.37705" fill="rgb(205,126,76)" />
	<circle cx="67" cy="133" r="9.57447" fill="rgb(145,69,39)" />
</svg>
