<?xml version="1.0" standalone="no" ?>
<!DOCTYPE svg PUBLIC "-//W3C//DTD SVG 1.1//EN" "http://www.w3.org/Graphics/SVG/1.1/DTD/svg11.dtd">
<svg width="250px" height="250px" xmlns="http://www.w3.org/2000/svg" version="1.1" >
	<circle cx="63" cy="40" r="2.57353" fill="rgb(224,167,64)" />
	<circle cx="227" cy="22" r="3.11111" fill="rgb(128,126,111)" />
	<circle cx="202" cy="42" r="2.32558" fill="rgb(217,204,143)" />
	<circle cx="211" cy="28" r="2.13415" fill="rgb(235,227,220)" />
	<circle cx="1" cy="35" r="2.36486" fill="rgb(236,186,139)" />
	<circle cx="200" cy="34" r="3.24074" fill="rgb(130,117,73)" />
	<circle cx="189" cy="37" r="3.28639" fill="rgb(126,107,106)" />
	<circle cx="181" cy="39" r="3.22581" fill="rgb(125,120,82)" />
	<circle cx="88" cy="44" r="2.91667" fill="rgb(237,103,79)" />
	<circle cx="114" cy="51" r="2.78884" fill="rgb(249,114,83)" />
	<circle cx="124" cy="52" r="2.7451" fill="rgb(245,125,74)" />
	<circle cx="78" cy="53" r="3.0303" fill="rgb(217,98,80)" />
	<circle cx="61" cy="55" r="3.15315" fill="rgb(188,106,36)" />
	<circle cx="67" cy="56" r="2.83401" fill="rgb(201,139,49)" />
	<circle cx="239" cy="59" r="3.66492" fill="rgb(97,93,64)" />
	<circle cx="170" cy="59" r="2.39726" fill="rgb(241,192,64)" />
	<circle cx="158" cy="65" r="2.63158" fill="rgb(223,158,60)" />
	<circle cx="121" cy="64" r="2.73438" fill="rgb(225,135,87)" />
	<circle cx="225" cy="63" r="3.16742" fill="rgb(130,122,91)" />
	<circle cx="231" cy="67" r="2.28758" fill="rgb(220,209,149)" />
	<circle cx="213" cy="67" r="3.62694" fill="rgb(103,97,50)" />
	<circle cx="193" cy="68" r="3.74332" fill="rgb(97,88,53)" />
	<circle cx="215" cy="74" r="3.39806" fill="rgb(119,109,60)" />
	<circle cx="101" cy="76" r="2.6616" fill="rgb(238,137,104)" />
	<circle cx="139" cy="79" r="2.7027" fill="rgb(223,145,62)" />
	<circle cx="175" cy="83" r="2.17391" fill="rgb(231,222,200)" />
	<circle cx="205" cy="78" r="2.91667" fill="rgb(145,144,104)" />
	<circle cx="58" cy="79" r="2.97872" fill="rgb(217,109,58)" />
	<circle cx="64" cy="79" r="2.9661" fill="rgb(230,99,80)" />
	<circle cx="124" cy="79" r="2.6616" fill="rgb(236,142,78)" />
	<circle cx="67" cy="80" r="2.78884" fill="rgb(247,115,86)" />
	<circle cx="57" cy="86" r="3.01724" fill="rgb(241,93,47)" />
	<circle cx="110" cy="92" r="2.88066" fill="rgb(213,122,68)" />
	<circle cx="66" cy="92" r="2.86885" fill="rgb(245,107,71)" />
	<circle cx="59" cy="91" r="3.0303" fill="rgb(244,91,44)" />
	<circle cx="21" cy="108" r="2.59259" fill="rgb(237,155,74)" />
	<circle cx="48" cy="93" r="3.07018" fill="rgb(216,96,64)" />
	<circle cx="49" cy="96" r="3.01724" fill="rgb(243,92,54)" />
	<circle cx="84" cy="96" r="2.8" fill="rgb(239,118,80)" />
	<circle cx="207" cy="101" r="2.84553" fill="rgb(161,148,93)" />
	<circle cx="89" cy="99" r="2.81124" fill="rgb(228,123,78)" />
	<circle cx="103" cy="106" r="2.81124" fill="rgb(218,129,74)" />
	<circle cx="170" cy="110" r="2.8" fill="rgb(202,144,49)" />
	<circle cx="93" cy="101" r="2.81124" fill="rgb(219,126,86)" />
	<circle cx="235" cy="106" r="3.09735" fill="rgb(127,127,110)" />
	<circle cx="223" cy="111" r="2.31788" fill="rgb(217,209,132)" />
	<circle cx="35" cy="111" r="2.92887" fill="rgb(241,100,74)" />
	<circle cx="58" cy="112" r="2.92887" fill="rgb(241,104,55)" />
	<circle cx="46" cy="115" r="2.90456" fill="rgb(246,102,63)" />
	<circle cx="58" cy="115" r="2.95359" fill="rgb(235,103,56)" />
	<circle cx="99" cy="115" r="2.8" fill="rgb(219,129,80)" />
	<circle cx="214" cy="115" r="2.68199" fill="rgb(167,163,132)" />
	<circle cx="72" cy="126" r="2.86885" fill="rgb(227,118,60)" />
	<circle cx="120" cy="144" r="2.82258" fill="rgb(191,145,52)" />
	<circle cx="91" cy="119" r="2.85714" fill="rgb(226,121,54)" />
	<circle cx="51" cy="120" r="2.7668" fill="rgb(243,122,78)" />
	<circle cx="123" cy="120" r="2.78884" fill="rgb(226,132,53)" />
	<circle cx="160" cy="165" r="2.51799" fill="rgb(216,183,57)" />
	<circle cx="97" cy="126" r="2.85714" fill="rgb(223,123,56)" />
	<circle cx="0" cy="125" r="2.85714" fill="rgb(233,110,97)" />
	<circle cx="149" cy="130" r="2.15385" fill="rgb(238,223,201)" />
	<circle cx="44" cy="137" r="2.83401" fill="rgb(231,119,70)" />
	<circle cx="168" cy="135" r="2.50896" fill="rgb(233,176,51)" />
	<circle cx="227" cy="139" r="3.46535" fill="rgb(108,101,90)" />
	<circle cx="103" cy="134" r="2.77778" fill="rgb(223,132,73)" />
	<circle cx="2" cy="138" r="2.85714" fill="rgb(224,114,96)" />
	<circle cx="50" cy="172" r="2.82258" fill="rgb(173,151,60)" />
	<circle cx="106" cy="138" r="2.7451" fill="rgb(215,142,62)" />
	<circle cx="106" cy="164" r="2.7451" fill="rgb(202,148,62)" />
	<circle cx="197" cy="140" r="2.3569" fill="rgb(227,203,87)" />
	<circle cx="74" cy="156" r="2.15385" fill="rgb(232,224,210)" />
	<circle cx="127" cy="141" r="2.31023" fill="rgb(221,200,170)" />
	<circle cx="132" cy="146" r="2.6616" fill="rgb(230,154,35)" />
	<circle cx="31" cy="149" r="3.05677" fill="rgb(165,121,74)" />
	<circle cx="25" cy="146" r="2.8" fill="rgb(241,116,92)" />
	<circle cx="2" cy="149" r="3.0837" fill="rgb(192,104,82)" />
	<circle cx="36" cy="147" r="2.89256" fill="rgb(178,137,79)" />
	<circle cx="4" cy="181" r="3.0303" fill="rgb(205,109,52)" />
	<circle cx="12" cy="179" r="2.9661" fill="rgb(190,124,55)" />
	<circle cx="23" cy="150" r="2.83401" fill="rgb(196,135,78)" />
	<circle cx="46" cy="152" r="2.92887" fill="rgb(208,121,49)" />
	<circle cx="136" cy="151" r="2.65152" fill="rgb(223,157,40)" />
	<circle cx="138" cy="152" r="2.58303" fill="rgb(234,166,31)" />
	<circle cx="139" cy="154" r="2.55474" fill="rgb(233,172,33)" />
	<circle cx="41" cy="162" r="2.86885" fill="rgb(166,148,69)" />
	<circle cx="2" cy="157" r="3.16742" fill="rgb(195,97,55)" />
	<circle cx="143" cy="160" r="2.64151" fill="rgb(213,166,37)" />
	<circle cx="23" cy="171" r="2.91667" fill="rgb(185,132,65)" />
	<circle cx="87" cy="166" r="2.7451" fill="rgb(200,156,29)" />
	<circle cx="35" cy="168" r="2.95359" fill="rgb(165,136,73)" />
	<circle cx="50" cy="162" r="2.7027" fill="rgb(210,153,57)" />
	<circle cx="126" cy="186" r="2.43056" fill="rgb(212,198,74)" />
	<circle cx="4" cy="167" r="3.09735" fill="rgb(202,106,31)" />
	<circle cx="153" cy="174" r="2.62172" fill="rgb(186,168,108)" />
	<circle cx="30" cy="195" r="2.95359" fill="rgb(175,131,65)" />
	<circle cx="3" cy="172" r="3.13901" fill="rgb(207,100,18)" />
	<circle cx="42" cy="178" r="2.89256" fill="rgb(160,145,80)" />
	<circle cx="47" cy="176" r="2.99145" fill="rgb(150,138,68)" />
	<circle cx="87" cy="176" r="2.55474" fill="rgb(225,175,36)" />
	<circle cx="38" cy="179" r="2.92887" fill="rgb(162,140,76)" />
	<circle cx="53" cy="195" r="3.125" fill="rgb(133,125,95)" />
	<circle cx="134" cy="188" r="2.50896" fill="rgb(191,184,125)" />
	<circle cx="160" cy="183" r="2.16049" fill="rgb(230,226,200)" />
	<circle cx="46" cy="190" r="2.8" fill="rgb(167,153,86)" />
	<circle cx="68" cy="187" r="2.6616" fill="rgb(195,168,51)" />
	<circle cx="165" cy="190" r="2.48227" fill="rgb(197,189,109)" />
	<circle cx="67" cy="197" r="3.16742" fill="rgb(135,125,67)" />
	<circle cx="6" cy="193" r="3.22581" fill="rgb(174,100,50)" />
	<circle cx="50" cy="195" r="2.82258" fill="rgb(161,148,108)" />
	<circle cx="14" cy="198" r="2.73438" fill="rgb(190,150,99)" />
	<circle cx="171" cy="200" r="2.60223" fill="rgb(181,174,108)" />
	<circle cx="74" cy="212" r="2.69231" fill="rgb(178,166,79)" />
	<circle cx="47" cy="205" r="3.25581" fill="rgb(123,114,101)" />
	<circle cx="93" cy="208" r="2.36486" fill="rgb(218,205,94)" />
	<circle cx="178" cy="215" r="2.69231" fill="rgb(171,167,94)" />
	<circle cx="80" cy="222" r="2.48227" fill="rgb(202,193,77)" />
	<circle cx="183" cy="224" r="2.82258" fill="rgb(153,152,113)" />
	<circle cx="70" cy="227" r="2.64151" fill="rgb(175,173,99)" />
	<circle cx="189" cy="235" r="3.43137" fill="rgb(107,104,97)" />
	<circle cx="186" cy="232" r="2.00573" fill="rgb(249,249,247)" />
</svg>
