<?xml version="1.0" ?>
<!DOCTYPE svg PUBLIC "-//W3C//DTD SVG 1.1//EN" "http://www.w3.org/Graphics/SVG/1.1/DTD/svg11.dtd">
<svg width="563" height="600" version="1.1" xmlns="http://www.w3.org/2000/svg">
<circle cx="478.695" cy="10.6457" r="6.27573" fill="rgb(0,0,0)" />
<circle cx="85.877" cy="12.3817" r="4.94619" fill="rgb(0,0,0)" />
<circle cx="154.452" cy="13.2482" r="5.16492" fill="rgb(0,0,0)" />
<circle cx="217.19" cy="9.4206" r="4.61321" fill="rgb(0,0,0)" />
<circle cx="473.542" cy="33.6003" r="8.41348" fill="rgb(0,0,0)" />
<circle cx="101.644" cy="35.3519" r="4.54918" fill="rgb(0,0,0)" />
<circle cx="447.74" cy="38.1587" r="8.26354" fill="rgb(0,0,0)" />
<circle cx="35.8025" cy="37.7305" r="4.44983" fill="rgb(0,0,0)" />
<circle cx="278.573" cy="8.98778" r="5.84079" fill="rgb(0,0,0)" />
<circle cx="166.776" cy="40.2847" r="4.14459" fill="rgb(0,0,0)" />
<circle cx="342.801" cy="9.64196" r="7.16278" fill="rgb(0,0,0)" />
<circle cx="130.805" cy="44.0062" r="4.43201" fill="rgb(0,0,0)" />
<circle cx="44.8641" cy="65.4309" r="5.02437" fill="rgb(0,0,0)" />
<circle cx="73.7257" cy="69.6206" r="4.31052" fill="rgb(0,0,0)" />
<circle cx="545.135" cy="60.3946" r="7.02298" fill="rgb(0,0,0)" />
<circle cx="318.523" cy="77.0399" r="2.37649" fill="rgb(0,0,0)" />
<circle cx="206.836" cy="85.4546" r="6.08745" fill="rgb(0,0,0)" />
<circle cx="528.092" cy="88.1346" r="7.50059" fill="rgb(0,0,0)" />
<circle cx="145.863" cy="93.5507" r="5.57742" fill="rgb(0,0,0)" />
<circle cx="503.338" cy="92.7193" r="7.13994" fill="rgb(0,0,0)" />
<circle cx="159.162" cy="116.401" r="7.68229" fill="rgb(0,0,0)" />
<circle cx="316.658" cy="113.692" r="3.78393" fill="rgb(0,0,0)" />
<circle cx="277.76" cy="118.398" r="6.00427" fill="rgb(0,0,0)" />
<circle cx="129.735" cy="136.964" r="7.44443" fill="rgb(0,0,0)" />
<circle cx="156.511" cy="141.792" r="6.18335" fill="rgb(0,0,0)" />
<circle cx="461.873" cy="87.4352" r="8.44122" fill="rgb(0,0,0)" />
<circle cx="205.76" cy="150.162" r="6.22701" fill="rgb(0,0,0)" />
<circle cx="362.197" cy="134.05" r="2.65733" fill="rgb(0,0,0)" />
<circle cx="73.7742" cy="158.943" r="6.44998" fill="rgb(0,0,0)" />
<circle cx="195.677" cy="177.107" r="6.47712" fill="rgb(0,0,0)" />
<circle cx="353.38" cy="172.986" r="4.13312" fill="rgb(0,0,0)" />
<circle cx="38.0401" cy="180.547" r="5.23533" fill="rgb(0,0,0)" />
<circle cx="88.9204" cy="189.465" r="6.34448" fill="rgb(0,0,0)" />
<circle cx="237.064" cy="192.709" r="5.41359" fill="rgb(0,0,0)" />
<circle cx="211.579" cy="194.637" r="7.0127" fill="rgb(0,0,0)" />
<circle cx="514.17" cy="169.704" r="5.9027" fill="rgb(0,0,0)" />
<circle cx="308.668" cy="200.572" r="6.25853" fill="rgb(0,0,0)" />
<circle cx="156.774" cy="211.848" r="6.56135" fill="rgb(0,0,0)" />
<circle cx="335.753" cy="207.293" r="4.98383" fill="rgb(0,0,0)" />
<circle cx="129.537" cy="214.635" r="6.56947" fill="rgb(0,0,0)" />
<circle cx="104.41" cy="213.923" r="5.41492" fill="rgb(0,0,0)" />
<circle cx="208.434" cy="217.112" r="5.39786" fill="rgb(0,0,0)" />
<circle cx="235.267" cy="217.852" r="7.34061" fill="rgb(0,0,0)" />
<circle cx="55.402" cy="95.4447" r="5.20632" fill="rgb(0,0,0)" />
<circle cx="289.312" cy="221.273" r="7.42813" fill="rgb(0,0,0)" />
<circle cx="366.51" cy="214.674" r="4.04445" fill="rgb(0,0,0)" />
<circle cx="262.357" cy="227.148" r="5.98971" fill="rgb(0,0,0)" />
<circle cx="432.452" cy="226.068" r="6.01173" fill="rgb(0,0,0)" />
<circle cx="163.584" cy="234.723" r="7.71693" fill="rgb(0,0,0)" />
<circle cx="113.464" cy="236.896" r="6.9581" fill="rgb(0,0,0)" />
<circle cx="409.233" cy="237.073" r="6.74447" fill="rgb(0,0,0)" />
<circle cx="87.6313" cy="240.369" r="6.53605" fill="rgb(0,0,0)" />
<circle cx="69.6011" cy="39.8651" r="5.11599" fill="rgb(0,0,0)" />
<circle cx="37.9425" cy="241.533" r="5.91344" fill="rgb(0,0,0)" />
<circle cx="124.013" cy="256.467" r="6.9244" fill="rgb(0,0,0)" />
<circle cx="525.988" cy="202.204" r="4.64381" fill="rgb(0,0,0)" />
<circle cx="195.499" cy="258.182" r="6.51068" fill="rgb(0,0,0)" />
<circle cx="476.085" cy="229.732" r="1.09954" fill="rgb(0,0,0)" />
<circle cx="512.077" cy="139.63" r="9.42825" fill="rgb(0,0,0)" />
<circle cx="71.7662" cy="263.044" r="6.33373" fill="rgb(0,0,0)" />
<circle cx="99.4499" cy="265.452" r="7.00827" fill="rgb(0,0,0)" />
<circle cx="222.187" cy="266.478" r="5.71117" fill="rgb(0,0,0)" />
<circle cx="128.804" cy="277.604" r="9.34649" fill="rgb(0,0,0)" />
<circle cx="152.98" cy="280.006" r="7.93874" fill="rgb(0,0,0)" />
<circle cx="345.845" cy="274.801" r="4.85821" fill="rgb(0,0,0)" />
<circle cx="177.355" cy="280.854" r="7.25821" fill="rgb(0,0,0)" />
<circle cx="71.0474" cy="125.619" r="5.11561" fill="rgb(0,0,0)" />
<circle cx="376.175" cy="263.404" r="6.7092" fill="rgb(0,0,0)" />
<circle cx="274.452" cy="276.757" r="6.5043" fill="rgb(0,0,0)" />
<circle cx="201.85" cy="280.894" r="6.10268" fill="rgb(0,0,0)" />
<circle cx="300.396" cy="276.114" r="6.30299" fill="rgb(0,0,0)" />
<circle cx="82.6278" cy="287.522" r="7.13909" fill="rgb(0,0,0)" />
<circle cx="106.372" cy="290.297" r="6.30205" fill="rgb(0,0,0)" />
<circle cx="134.666" cy="299.112" r="8.79665" fill="rgb(0,0,0)" />
<circle cx="223.695" cy="295.596" r="5.56592" fill="rgb(0,0,0)" />
<circle cx="36.6368" cy="299.007" r="6.91971" fill="rgb(0,0,0)" />
<circle cx="256.062" cy="300.122" r="4.46949" fill="rgb(0,0,0)" />
<circle cx="426.839" cy="255.21" r="6.55756" fill="rgb(0,0,0)" />
<circle cx="500.018" cy="287.406" r="2.33963" fill="rgb(0,0,0)" />
<circle cx="151.871" cy="68.9424" r="5.16803" fill="rgb(0,0,0)" />
<circle cx="545.04" cy="156.604" r="8.06863" fill="rgb(0,0,0)" />
<circle cx="61.2755" cy="313.143" r="7.01458" fill="rgb(0,0,0)" />
<circle cx="352.229" cy="303.979" r="5.57183" fill="rgb(0,0,0)" />
<circle cx="110.686" cy="314.243" r="6.39616" fill="rgb(0,0,0)" />
<circle cx="285.881" cy="306.157" r="4.09537" fill="rgb(0,0,0)" />
<circle cx="157.104" cy="323.191" r="8.75584" fill="rgb(0,0,0)" />
<circle cx="393.361" cy="295.164" r="6.47423" fill="rgb(0,0,0)" />
<circle cx="235.583" cy="323.861" r="5.10188" fill="rgb(0,0,0)" />
<circle cx="193.988" cy="337.378" r="6.42285" fill="rgb(0,0,0)" />
<circle cx="332.179" cy="327.945" r="6.51603" fill="rgb(0,0,0)" />
<circle cx="88.8811" cy="334.928" r="6.36272" fill="rgb(0,0,0)" />
<circle cx="263.13" cy="330.549" r="4.46393" fill="rgb(0,0,0)" />
<circle cx="514.899" cy="65.3346" r="7.11394" fill="rgb(0,0,0)" />
<circle cx="64.0035" cy="338.324" r="7.5099" fill="rgb(0,0,0)" />
<circle cx="458.908" cy="296.29" r="2.58124" fill="rgb(0,0,0)" />
<circle cx="114.37" cy="338.261" r="7.29505" fill="rgb(0,0,0)" />
<circle cx="88.8339" cy="95.0343" r="4.86446" fill="rgb(0,0,0)" />
<circle cx="144.642" cy="341.791" r="7.29946" fill="rgb(0,0,0)" />
<circle cx="521.665" cy="39.1577" r="7.24787" fill="rgb(0,0,0)" />
<circle cx="181.652" cy="67.4143" r="4.29271" fill="rgb(0,0,0)" />
<circle cx="447.938" cy="334.714" r="3.09322" fill="rgb(0,0,0)" />
<circle cx="193.007" cy="358.969" r="6.87318" fill="rgb(0,0,0)" />
<circle cx="120.212" cy="82.9489" r="5.537" fill="rgb(0,0,0)" />
<circle cx="279.603" cy="353.63" r="4.89093" fill="rgb(0,0,0)" />
<circle cx="313.869" cy="354.67" r="7.48588" fill="rgb(0,0,0)" />
<circle cx="244.766" cy="357.099" r="5.37821" fill="rgb(0,0,0)" />
<circle cx="39.5566" cy="353.013" r="6.77879" fill="rgb(0,0,0)" />
<circle cx="93.0615" cy="357.962" r="7.94024" fill="rgb(0,0,0)" />
<circle cx="67.6128" cy="362.431" r="5.13275" fill="rgb(0,0,0)" />
<circle cx="220.276" cy="370.795" r="6.04971" fill="rgb(0,0,0)" />
<circle cx="549.806" cy="11.9056" r="5.47241" fill="rgb(0,0,0)" />
<circle cx="369.731" cy="28.2331" r="1.71935" fill="rgb(0,0,0)" />
<circle cx="119.505" cy="190.69" r="5.89952" fill="rgb(0,0,0)" />
<circle cx="172.219" cy="372.992" r="7.93334" fill="rgb(0,0,0)" />
<circle cx="379.231" cy="360.734" r="7.42335" fill="rgb(0,0,0)" />
<circle cx="495.137" cy="46.3222" r="7.53362" fill="rgb(0,0,0)" />
<circle cx="43.8546" cy="149.752" r="5.07901" fill="rgb(0,0,0)" />
<circle cx="261.947" cy="377.443" r="5.6536" fill="rgb(0,0,0)" />
<circle cx="262.403" cy="201.289" r="8.00391" fill="rgb(0,0,0)" />
<circle cx="130.657" cy="378.172" r="7.70034" fill="rgb(0,0,0)" />
<circle cx="318.34" cy="380.447" r="4.88098" fill="rgb(0,0,0)" />
<circle cx="38.0295" cy="326.94" r="7.19494" fill="rgb(0,0,0)" />
<circle cx="289.646" cy="381.02" r="6.08941" fill="rgb(0,0,0)" />
<circle cx="425.017" cy="281.321" r="6.1914" fill="rgb(0,0,0)" />
<circle cx="361.756" cy="376.593" r="9.48775" fill="rgb(0,0,0)" />
<circle cx="195.748" cy="381.379" r="7.08265" fill="rgb(0,0,0)" />
<circle cx="260.025" cy="253.466" r="6.78574" fill="rgb(0,0,0)" />
<circle cx="12.3733" cy="108.904" r="4.70091" fill="rgb(0,0,0)" />
<circle cx="14.3277" cy="138.827" r="4.97204" fill="rgb(0,0,0)" />
<circle cx="44.8593" cy="385.134" r="3.37429" fill="rgb(0,0,0)" />
<circle cx="406.702" cy="148.488" r="2.20137" fill="rgb(0,0,0)" />
<circle cx="433.724" cy="373.973" r="3.54246" fill="rgb(0,0,0)" />
<circle cx="180.535" cy="396.44" r="6.91638" fill="rgb(0,0,0)" />
<circle cx="340.309" cy="396.213" r="6.69465" fill="rgb(0,0,0)" />
<circle cx="401.873" cy="391.866" r="2.43577" fill="rgb(0,0,0)" />
<circle cx="105.985" cy="116.57" r="6.36379" fill="rgb(0,0,0)" />
<circle cx="266.182" cy="402.018" r="8.75667" fill="rgb(0,0,0)" />
<circle cx="525.325" cy="12.3828" r="7.78424" fill="rgb(0,0,0)" />
<circle cx="416.88" cy="313.774" r="5.56251" fill="rgb(0,0,0)" />
<circle cx="310.949" cy="403.722" r="7.73754" fill="rgb(0,0,0)" />
<circle cx="486.829" cy="75.5676" r="8.2866" fill="rgb(0,0,0)" />
<circle cx="548.741" cy="36.1659" r="7.14693" fill="rgb(0,0,0)" />
<circle cx="137.524" cy="402.706" r="8.32805" fill="rgb(0,0,0)" />
<circle cx="184.814" cy="132.247" r="6.30863" fill="rgb(0,0,0)" />
<circle cx="547.616" cy="236.568" r="6.35192" fill="rgb(0,0,0)" />
<circle cx="451.263" cy="399.715" r="4.1659" fill="rgb(0,0,0)" />
<circle cx="545.724" cy="133.121" r="7.61695" fill="rgb(0,0,0)" />
<circle cx="196.066" cy="411.51" r="7.21344" fill="rgb(0,0,0)" />
<circle cx="161.554" cy="399.978" r="8.40125" fill="rgb(0,0,0)" />
<circle cx="287.914" cy="408.173" r="7.34207" fill="rgb(0,0,0)" />
<circle cx="327.352" cy="419.208" r="7.28949" fill="rgb(0,0,0)" />
<circle cx="121.868" cy="422.175" r="5.84373" fill="rgb(0,0,0)" />
<circle cx="122.292" cy="13.3801" r="4.86482" fill="rgb(0,0,0)" />
<circle cx="295.764" cy="142.63" r="5.13109" fill="rgb(0,0,0)" />
<circle cx="414.531" cy="424.066" r="6.03038" fill="rgb(0,0,0)" />
<circle cx="199.967" cy="431.755" r="7.47883" fill="rgb(0,0,0)" />
<circle cx="483.133" cy="328.512" r="2.55888" fill="rgb(0,0,0)" />
<circle cx="465.032" cy="428.999" r="5.89415" fill="rgb(0,0,0)" />
<circle cx="80.3889" cy="436.161" r="7.84412" fill="rgb(0,0,0)" />
<circle cx="219.194" cy="344.983" r="5.55567" fill="rgb(0,0,0)" />
<circle cx="141.05" cy="431.733" r="7.95562" fill="rgb(0,0,0)" />
<circle cx="438.126" cy="433.497" r="7.38931" fill="rgb(0,0,0)" />
<circle cx="238.879" cy="390.791" r="6.67864" fill="rgb(0,0,0)" />
<circle cx="241.673" cy="437.155" r="6.81593" fill="rgb(0,0,0)" />
<circle cx="60.116" cy="442.56" r="7.55948" fill="rgb(0,0,0)" />
<circle cx="494.853" cy="434.192" r="5.41278" fill="rgb(0,0,0)" />
<circle cx="99.267" cy="437.625" r="6.48094" fill="rgb(0,0,0)" />
<circle cx="248.45" cy="9.33948" r="5.54587" fill="rgb(0,0,0)" />
<circle cx="368.232" cy="436.97" r="6.88533" fill="rgb(0,0,0)" />
<circle cx="20.1285" cy="84.1647" r="5.99822" fill="rgb(0,0,0)" />
<circle cx="40.1684" cy="448.937" r="6.15751" fill="rgb(0,0,0)" />
<circle cx="401.642" cy="265.113" r="8.132" fill="rgb(0,0,0)" />
<circle cx="218.097" cy="444.535" r="6.60585" fill="rgb(0,0,0)" />
<circle cx="511.538" cy="371.253" r="4.37173" fill="rgb(0,0,0)" />
<circle cx="15.8837" cy="268.089" r="5.63246" fill="rgb(0,0,0)" />
<circle cx="519.094" cy="447.679" r="6.79399" fill="rgb(0,0,0)" />
<circle cx="151.622" cy="165.954" r="7.49023" fill="rgb(0,0,0)" />
<circle cx="187.052" cy="233.174" r="6.37008" fill="rgb(0,0,0)" />
<circle cx="127.304" cy="448.139" r="6.30076" fill="rgb(0,0,0)" />
<circle cx="93.6413" cy="456.008" r="9.02853" fill="rgb(0,0,0)" />
<circle cx="74.6168" cy="457.383" r="7.32633" fill="rgb(0,0,0)" />
<circle cx="305.51" cy="244.266" r="7.44019" fill="rgb(0,0,0)" />
<circle cx="262.023" cy="453.511" r="5.54949" fill="rgb(0,0,0)" />
<circle cx="476.481" cy="451.499" r="5.83945" fill="rgb(0,0,0)" />
<circle cx="173.003" cy="459.38" r="7.88948" fill="rgb(0,0,0)" />
<circle cx="235.557" cy="76.3017" r="4.39759" fill="rgb(0,0,0)" />
<circle cx="235.678" cy="459.474" r="6.80115" fill="rgb(0,0,0)" />
<circle cx="302.748" cy="427.41" r="7.2479" fill="rgb(0,0,0)" />
<circle cx="55.23" cy="462.558" r="7.6467" fill="rgb(0,0,0)" />
<circle cx="451.935" cy="454.705" r="7.81437" fill="rgb(0,0,0)" />
<circle cx="428.876" cy="12.567" r="8.3746" fill="rgb(0,0,0)" />
<circle cx="322.06" cy="446.345" r="7.02077" fill="rgb(0,0,0)" />
<circle cx="345.228" cy="241.565" r="6.43017" fill="rgb(0,0,0)" />
<circle cx="31.9267" cy="465.185" r="8.33412" fill="rgb(0,0,0)" />
<circle cx="96.7273" cy="418.626" r="6.46402" fill="rgb(0,0,0)" />
<circle cx="431.997" cy="463.676" r="8.57126" fill="rgb(0,0,0)" />
<circle cx="346.416" cy="457.298" r="5.00401" fill="rgb(0,0,0)" />
<circle cx="498.267" cy="465.203" r="7.43258" fill="rgb(0,0,0)" />
<circle cx="64.5375" cy="188.528" r="5.33832" fill="rgb(0,0,0)" />
<circle cx="403.816" cy="471.295" r="8.85465" fill="rgb(0,0,0)" />
<circle cx="86.8984" cy="475.481" r="7.39124" fill="rgb(0,0,0)" />
<circle cx="518.162" cy="115.19" r="7.88476" fill="rgb(0,0,0)" />
<circle cx="290.971" cy="451.042" r="4.675" fill="rgb(0,0,0)" />
<circle cx="105.099" cy="474.502" r="6.04432" fill="rgb(0,0,0)" />
<circle cx="466.404" cy="473.147" r="8.55175" fill="rgb(0,0,0)" />
<circle cx="234.583" cy="145.173" r="6.44516" fill="rgb(0,0,0)" />
<circle cx="190.814" cy="474.288" r="8.32715" fill="rgb(0,0,0)" />
<circle cx="48.3952" cy="479.794" r="7.4925" fill="rgb(0,0,0)" />
<circle cx="406.533" cy="212.457" r="5.50319" fill="rgb(0,0,0)" />
<circle cx="131.885" cy="470.105" r="4.99616" fill="rgb(0,0,0)" />
<circle cx="79.9717" cy="389.015" r="3.33359" fill="rgb(0,0,0)" />
<circle cx="250.142" cy="475.384" r="8.45744" fill="rgb(0,0,0)" />
<circle cx="76.5272" cy="214.301" r="6.02284" fill="rgb(0,0,0)" />
<circle cx="523.898" cy="475.042" r="6.65507" fill="rgb(0,0,0)" />
<circle cx="374.808" cy="7.08114" r="6.04627" fill="rgb(0,0,0)" />
<circle cx="274.852" cy="475.679" r="6.14309" fill="rgb(0,0,0)" />
<circle cx="26.1787" cy="482.64" r="7.6407" fill="rgb(0,0,0)" />
<circle cx="35.8064" cy="416.873" r="3.87207" fill="rgb(0,0,0)" />
<circle cx="228.871" cy="480.822" r="7.21098" fill="rgb(0,0,0)" />
<circle cx="304.123" cy="476.487" r="5.07505" fill="rgb(0,0,0)" />
<circle cx="403.28" cy="13.609" r="7.12131" fill="rgb(0,0,0)" />
<circle cx="138.847" cy="236.266" r="7.1262" fill="rgb(0,0,0)" />
<circle cx="167.663" cy="478.802" r="8.96794" fill="rgb(0,0,0)" />
<circle cx="484.481" cy="485.768" r="5.97172" fill="rgb(0,0,0)" />
<circle cx="264.009" cy="144.039" r="5.63847" fill="rgb(0,0,0)" />
<circle cx="184.154" cy="206.626" r="7.60318" fill="rgb(0,0,0)" />
<circle cx="146.556" cy="488.588" r="5.13508" fill="rgb(0,0,0)" />
<circle cx="150.763" cy="383.716" r="7.03243" fill="rgb(0,0,0)" />
<circle cx="409.008" cy="493.985" r="7.3282" fill="rgb(0,0,0)" />
<circle cx="519.144" cy="248.939" r="1.86558" fill="rgb(0,0,0)" />
<circle cx="257.109" cy="493.397" r="8.74537" fill="rgb(0,0,0)" />
<circle cx="40.5969" cy="496.551" r="7.17098" fill="rgb(0,0,0)" />
<circle cx="443.616" cy="64.784" r="6.83341" fill="rgb(0,0,0)" />
<circle cx="271.314" cy="428.646" r="5.83527" fill="rgb(0,0,0)" />
<circle cx="328.073" cy="488.008" r="6.72518" fill="rgb(0,0,0)" />
<circle cx="82.6302" cy="496.819" r="8.11971" fill="rgb(0,0,0)" />
<circle cx="313.628" cy="173.653" r="4.4936" fill="rgb(0,0,0)" />
<circle cx="446.352" cy="485.163" r="8.64929" fill="rgb(0,0,0)" />
<circle cx="284.122" cy="495.969" r="7.96303" fill="rgb(0,0,0)" />
<circle cx="507.482" cy="492.746" r="7.65127" fill="rgb(0,0,0)" />
<circle cx="233.296" cy="498.997" r="9.21551" fill="rgb(0,0,0)" />
<circle cx="183.449" cy="492.374" r="8.40285" fill="rgb(0,0,0)" />
<circle cx="464.814" cy="499.11" r="7.97636" fill="rgb(0,0,0)" />
<circle cx="107.709" cy="376.449" r="5.46666" fill="rgb(0,0,0)" />
<circle cx="22.5622" cy="502.298" r="7.33859" fill="rgb(0,0,0)" />
<circle cx="547.919" cy="109.235" r="6.86059" fill="rgb(0,0,0)" />
<circle cx="224.471" cy="169.614" r="6.02162" fill="rgb(0,0,0)" />
<circle cx="319.965" cy="226.61" r="7.41601" fill="rgb(0,0,0)" />
<circle cx="551.39" cy="83.9263" r="5.65019" fill="rgb(0,0,0)" />
<circle cx="328.115" cy="146.825" r="3.28456" fill="rgb(0,0,0)" />
<circle cx="550.788" cy="208.211" r="5.34382" fill="rgb(0,0,0)" />
<circle cx="468.177" cy="367.036" r="3.01535" fill="rgb(0,0,0)" />
<circle cx="547.366" cy="180.92" r="7.35371" fill="rgb(0,0,0)" />
<circle cx="529.125" cy="501.044" r="7.11613" fill="rgb(0,0,0)" />
<circle cx="245.561" cy="274.736" r="6.15524" fill="rgb(0,0,0)" />
<circle cx="429.16" cy="504.422" r="7.57695" fill="rgb(0,0,0)" />
<circle cx="373.588" cy="468.184" r="4.56036" fill="rgb(0,0,0)" />
<circle cx="486.443" cy="508.049" r="7.87766" fill="rgb(0,0,0)" />
<circle cx="396.176" cy="84.7817" r="0.937122" fill="rgb(0,0,0)" />
<circle cx="160.179" cy="508.437" r="6.75884" fill="rgb(0,0,0)" />
<circle cx="101.378" cy="510.107" r="7.86625" fill="rgb(0,0,0)" />
<circle cx="61.6085" cy="238.986" r="6.59012" fill="rgb(0,0,0)" />
<circle cx="424.041" cy="482.479" r="6.94554" fill="rgb(0,0,0)" />
<circle cx="355.546" cy="489.799" r="5.55219" fill="rgb(0,0,0)" />
<circle cx="268.659" cy="63.0216" r="3.05896" fill="rgb(0,0,0)" />
<circle cx="407.363" cy="512.82" r="8.2217" fill="rgb(0,0,0)" />
<circle cx="14.0351" cy="444.899" r="3.98961" fill="rgb(0,0,0)" />
<circle cx="390.539" cy="493.555" r="7.67377" fill="rgb(0,0,0)" />
<circle cx="193.563" cy="507.981" r="7.83046" fill="rgb(0,0,0)" />
<circle cx="286.413" cy="89.9253" r="4.52446" fill="rgb(0,0,0)" />
<circle cx="451.137" cy="255.62" r="4.18882" fill="rgb(0,0,0)" />
<circle cx="119.038" cy="517.306" r="6.96158" fill="rgb(0,0,0)" />
<circle cx="447.241" cy="514.086" r="8.19358" fill="rgb(0,0,0)" />
<circle cx="87.4404" cy="520.164" r="8.0341" fill="rgb(0,0,0)" />
<circle cx="194.993" cy="108.874" r="8.00513" fill="rgb(0,0,0)" />
<circle cx="226.956" cy="518.588" r="9.76465" fill="rgb(0,0,0)" />
<circle cx="384.362" cy="516.055" r="10.1077" fill="rgb(0,0,0)" />
<circle cx="18.0924" cy="523.504" r="7.27134" fill="rgb(0,0,0)" />
<circle cx="511.035" cy="517.538" r="7.63557" fill="rgb(0,0,0)" />
<circle cx="467.197" cy="522.46" r="9.45968" fill="rgb(0,0,0)" />
<circle cx="453.834" cy="12.5919" r="7.51252" fill="rgb(0,0,0)" />
<circle cx="209.984" cy="50.0007" r="2.98228" fill="rgb(0,0,0)" />
<circle cx="406.46" cy="359.728" r="4.25522" fill="rgb(0,0,0)" />
<circle cx="365.81" cy="406.155" r="5.76492" fill="rgb(0,0,0)" />
<circle cx="339.626" cy="511.017" r="8.6156" fill="rgb(0,0,0)" />
<circle cx="305.225" cy="504.552" r="8.10172" fill="rgb(0,0,0)" />
<circle cx="532.857" cy="524.393" r="7.74358" fill="rgb(0,0,0)" />
<circle cx="99.4013" cy="166.156" r="5.58806" fill="rgb(0,0,0)" />
<circle cx="179.958" cy="440.371" r="6.63029" fill="rgb(0,0,0)" />
<circle cx="319.801" cy="519.566" r="9.6778" fill="rgb(0,0,0)" />
<circle cx="348.155" cy="426.304" r="8.30357" fill="rgb(0,0,0)" />
<circle cx="209.261" cy="519.425" r="8.54594" fill="rgb(0,0,0)" />
<circle cx="436.603" cy="176.396" r="2.08227" fill="rgb(0,0,0)" />
<circle cx="113.582" cy="399.767" r="6.5323" fill="rgb(0,0,0)" />
<circle cx="401.093" cy="530.271" r="7.42664" fill="rgb(0,0,0)" />
<circle cx="489.338" cy="527.584" r="7.61719" fill="rgb(0,0,0)" />
<circle cx="150.032" cy="362.495" r="7.84082" fill="rgb(0,0,0)" />
<circle cx="47.1956" cy="532.167" r="6.86041" fill="rgb(0,0,0)" />
<circle cx="468.314" cy="58.8689" r="7.62731" fill="rgb(0,0,0)" />
<circle cx="383.291" cy="238.65" r="6.83635" fill="rgb(0,0,0)" />
<circle cx="66.1462" cy="527.351" r="7.52013" fill="rgb(0,0,0)" />
<circle cx="262.614" cy="529.794" r="8.58645" fill="rgb(0,0,0)" />
<circle cx="148.528" cy="530.249" r="8.43994" fill="rgb(0,0,0)" />
<circle cx="423.703" cy="527.999" r="8.13433" fill="rgb(0,0,0)" />
<circle cx="282.116" cy="248.871" r="9.13521" fill="rgb(0,0,0)" />
<circle cx="105.421" cy="532.349" r="7.68989" fill="rgb(0,0,0)" />
<circle cx="300.711" cy="530.949" r="8.57012" fill="rgb(0,0,0)" />
<circle cx="501.469" cy="16.2601" r="7.84245" fill="rgb(0,0,0)" />
<circle cx="29.0574" cy="537.995" r="7.31765" fill="rgb(0,0,0)" />
<circle cx="152.106" cy="461.018" r="7.94522" fill="rgb(0,0,0)" />
<circle cx="83.6421" cy="537.744" r="7.60439" fill="rgb(0,0,0)" />
<circle cx="184.597" cy="537.531" r="7.48033" fill="rgb(0,0,0)" />
<circle cx="393.183" cy="450.278" r="6.85737" fill="rgb(0,0,0)" />
<circle cx="372.188" cy="534.839" r="7.89342" fill="rgb(0,0,0)" />
<circle cx="442.201" cy="535.784" r="8.17959" fill="rgb(0,0,0)" />
<circle cx="173.436" cy="93.9458" r="5.88381" fill="rgb(0,0,0)" />
<circle cx="501.883" cy="542.375" r="7.9734" fill="rgb(0,0,0)" />
<circle cx="220.62" cy="541.586" r="7.55657" fill="rgb(0,0,0)" />
<circle cx="520.531" cy="540.855" r="8.09378" fill="rgb(0,0,0)" />
<circle cx="335.886" cy="540.942" r="7.04802" fill="rgb(0,0,0)" />
<circle cx="384.586" cy="182.581" r="3.99614" fill="rgb(0,0,0)" />
<circle cx="254.612" cy="549.053" r="8.52209" fill="rgb(0,0,0)" />
<circle cx="59.848" cy="287.483" r="5.18325" fill="rgb(0,0,0)" />
<circle cx="313.427" cy="548.09" r="8.30739" fill="rgb(0,0,0)" />
<circle cx="537.646" cy="549.232" r="8.07806" fill="rgb(0,0,0)" />
<circle cx="44.7183" cy="551.827" r="7.06002" fill="rgb(0,0,0)" />
<circle cx="256.92" cy="94.4744" r="6.60982" fill="rgb(0,0,0)" />
<circle cx="200.86" cy="549.401" r="9.72899" fill="rgb(0,0,0)" />
<circle cx="84.9966" cy="311.657" r="7.72511" fill="rgb(0,0,0)" />
<circle cx="138.908" cy="550.821" r="7.77663" fill="rgb(0,0,0)" />
<circle cx="214.524" cy="395.673" r="5.9343" fill="rgb(0,0,0)" />
<circle cx="387.335" cy="423.328" r="5.85028" fill="rgb(0,0,0)" />
<circle cx="209.427" cy="493.875" r="9.41177" fill="rgb(0,0,0)" />
<circle cx="117.495" cy="551.109" r="7.71942" fill="rgb(0,0,0)" />
<circle cx="458.695" cy="544.115" r="7.27807" fill="rgb(0,0,0)" />
<circle cx="353.629" cy="551.573" r="8.4402" fill="rgb(0,0,0)" />
<circle cx="97.8614" cy="551.641" r="8.50017" fill="rgb(0,0,0)" />
<circle cx="485.627" cy="397.679" r="3.97808" fill="rgb(0,0,0)" />
<circle cx="488.152" cy="555.73" r="6.81299" fill="rgb(0,0,0)" />
<circle cx="430.25" cy="552.914" r="7.42098" fill="rgb(0,0,0)" />
<circle cx="34.5015" cy="516.962" r="7.30265" fill="rgb(0,0,0)" />
<circle cx="26.8775" cy="555.997" r="8.86724" fill="rgb(0,0,0)" />
<circle cx="233.603" cy="555.639" r="8.28011" fill="rgb(0,0,0)" />
<circle cx="159.894" cy="549.256" r="9.35471" fill="rgb(0,0,0)" />
<circle cx="292.979" cy="553.944" r="8.43912" fill="rgb(0,0,0)" />
<circle cx="126.89" cy="162.692" r="6.34796" fill="rgb(0,0,0)" />
<circle cx="179.181" cy="555.044" r="7.62031" fill="rgb(0,0,0)" />
<circle cx="178.136" cy="158.176" r="5.85087" fill="rgb(0,0,0)" />
<circle cx="79.2969" cy="556.692" r="8.50457" fill="rgb(0,0,0)" />
<circle cx="351.662" cy="86.2173" r="1.90613" fill="rgb(0,0,0)" />
<circle cx="42.2628" cy="267.404" r="6.3818" fill="rgb(0,0,0)" />
<circle cx="191.585" cy="301.195" r="8.10718" fill="rgb(0,0,0)" />
<circle cx="60.8215" cy="561.788" r="6.82286" fill="rgb(0,0,0)" />
<circle cx="374.514" cy="557.674" r="9.33301" fill="rgb(0,0,0)" />
<circle cx="321.443" cy="298.94" r="5.52228" fill="rgb(0,0,0)" />
<circle cx="506.002" cy="564.071" r="8.62454" fill="rgb(0,0,0)" />
<circle cx="523.39" cy="564.643" r="7.2477" fill="rgb(0,0,0)" />
<circle cx="197.133" cy="453.841" r="7.41436" fill="rgb(0,0,0)" />
<circle cx="392.652" cy="566.748" r="8.45498" fill="rgb(0,0,0)" />
<circle cx="327.18" cy="563.182" r="9.65688" fill="rgb(0,0,0)" />
<circle cx="211.964" cy="566.771" r="8.9499" fill="rgb(0,0,0)" />
<circle cx="362.942" cy="571.338" r="7.04737" fill="rgb(0,0,0)" />
<circle cx="268.005" cy="509.845" r="7.07738" fill="rgb(0,0,0)" />
<circle cx="63.6" cy="544.459" r="7.03575" fill="rgb(0,0,0)" />
<circle cx="307.027" cy="569.564" r="7.73807" fill="rgb(0,0,0)" />
<circle cx="343.466" cy="570.088" r="7.75239" fill="rgb(0,0,0)" />
<circle cx="227.074" cy="101.658" r="7.82481" fill="rgb(0,0,0)" />
<circle cx="540.057" cy="572.071" r="7.45189" fill="rgb(0,0,0)" />
<circle cx="61.3213" cy="495.673" r="7.18842" fill="rgb(0,0,0)" />
<circle cx="126.355" cy="569.725" r="7.77398" fill="rgb(0,0,0)" />
<circle cx="105.448" cy="570.194" r="7.66591" fill="rgb(0,0,0)" />
<circle cx="101.051" cy="62.2953" r="5.17188" fill="rgb(0,0,0)" />
<circle cx="208.573" cy="318.34" r="6.28647" fill="rgb(0,0,0)" />
<circle cx="147.31" cy="569.534" r="8.15782" fill="rgb(0,0,0)" />
<circle cx="138.035" cy="512.838" r="7.42228" fill="rgb(0,0,0)" />
<circle cx="284.604" cy="572.878" r="8.90292" fill="rgb(0,0,0)" />
<circle cx="250.638" cy="570.299" r="7.51276" fill="rgb(0,0,0)" />
<circle cx="434.297" cy="572.931" r="8.26334" fill="rgb(0,0,0)" />
<circle cx="162.17" cy="301.24" r="7.8818" fill="rgb(0,0,0)" />
<circle cx="519.819" cy="329.289" r="2.74115" fill="rgb(0,0,0)" />
<circle cx="470.138" cy="565.678" r="7.64376" fill="rgb(0,0,0)" />
<circle cx="190.803" cy="570.705" r="8.00105" fill="rgb(0,0,0)" />
<circle cx="489.152" cy="574.177" r="7.90943" fill="rgb(0,0,0)" />
<circle cx="416.207" cy="448.743" r="7.17228" fill="rgb(0,0,0)" />
<circle cx="544.143" cy="374.674" r="4.91383" fill="rgb(0,0,0)" />
<circle cx="167.595" cy="570.977" r="7.89466" fill="rgb(0,0,0)" />
<circle cx="43.6367" cy="572.193" r="7.9242" fill="rgb(0,0,0)" />
<circle cx="254.062" cy="171.254" r="5.86846" fill="rgb(0,0,0)" />
<circle cx="85.3099" cy="573.244" r="8.52132" fill="rgb(0,0,0)" />
<circle cx="389.485" cy="544.815" r="9.40039" fill="rgb(0,0,0)" />
<circle cx="24.6886" cy="573.9" r="8.15253" fill="rgb(0,0,0)" />
<circle cx="230.455" cy="574.211" r="6.84777" fill="rgb(0,0,0)" />
<circle cx="64.9735" cy="577.174" r="8.45528" fill="rgb(0,0,0)" />
<circle cx="545.573" cy="462.377" r="4.74067" fill="rgb(0,0,0)" />
<circle cx="100.465" cy="491.417" r="7.17505" fill="rgb(0,0,0)" />
<circle cx="11.5433" cy="416.927" r="3.36926" fill="rgb(0,0,0)" />
<circle cx="238.745" cy="243.101" r="6.63141" fill="rgb(0,0,0)" />
<circle cx="476.327" cy="542.594" r="8.45104" fill="rgb(0,0,0)" />
<circle cx="14.6394" cy="385.887" r="4.45449" fill="rgb(0,0,0)" />
<circle cx="174.348" cy="420.551" r="8.07791" fill="rgb(0,0,0)" />
<circle cx="223.929" cy="417.389" r="6.81974" fill="rgb(0,0,0)" />
<circle cx="278.358" cy="541.494" r="8.69546" fill="rgb(0,0,0)" />
<circle cx="509.824" cy="585.997" r="8.16018" fill="rgb(0,0,0)" />
<circle cx="458.979" cy="585.806" r="7.69821" fill="rgb(0,0,0)" />
<circle cx="122.586" cy="357.891" r="7.97674" fill="rgb(0,0,0)" />
<circle cx="13.092" cy="168.789" r="5.32166" fill="rgb(0,0,0)" />
<circle cx="285.519" cy="194.956" r="8.22464" fill="rgb(0,0,0)" />
<circle cx="13.8698" cy="233.776" r="4.69525" fill="rgb(0,0,0)" />
<circle cx="46.4425" cy="213.448" r="6.09841" fill="rgb(0,0,0)" />
<circle cx="169.969" cy="346.418" r="7.23822" fill="rgb(0,0,0)" />
<circle cx="14.5567" cy="201.877" r="4.37129" fill="rgb(0,0,0)" />
<circle cx="262.765" cy="587.457" r="8.8" fill="rgb(0,0,0)" />
<circle cx="186.547" cy="13.188" r="5.52469" fill="rgb(0,0,0)" />
<circle cx="282.373" cy="168.078" r="6.24451" fill="rgb(0,0,0)" />
<circle cx="8.98195" cy="555.942" r="8.18052" fill="rgb(0,0,0)" />
<circle cx="374.55" cy="586.787" r="9.06886" fill="rgb(0,0,0)" />
<circle cx="413.69" cy="569.184" r="7.01501" fill="rgb(0,0,0)" />
<circle cx="319.639" cy="587.172" r="8.51827" fill="rgb(0,0,0)" />
<circle cx="547.275" cy="402.526" r="3.30506" fill="rgb(0,0,0)" />
<circle cx="525.236" cy="588.55" r="7.11423" fill="rgb(0,0,0)" />
<circle cx="10.3535" cy="469.16" r="6.92755" fill="rgb(0,0,0)" />
<circle cx="179.952" cy="320.75" r="7.38859" fill="rgb(0,0,0)" />
<circle cx="494.331" cy="591.126" r="5.9883" fill="rgb(0,0,0)" />
<circle cx="246.486" cy="120.638" r="6.63608" fill="rgb(0,0,0)" />
<circle cx="99.4698" cy="141.296" r="6.47391" fill="rgb(0,0,0)" />
<circle cx="169.417" cy="185.911" r="5.78442" fill="rgb(0,0,0)" />
<circle cx="269.512" cy="562.137" r="8.86415" fill="rgb(0,0,0)" />
<circle cx="476.091" cy="588.941" r="7.3059" fill="rgb(0,0,0)" />
<circle cx="8.34597" cy="537.435" r="8.83732" fill="rgb(0,0,0)" />
<circle cx="359.237" cy="336.475" r="5.88751" fill="rgb(0,0,0)" />
<circle cx="69.3433" cy="478.544" r="7.6321" fill="rgb(0,0,0)" />
<circle cx="390.411" cy="587.995" r="6.70379" fill="rgb(0,0,0)" />
<circle cx="39.0516" cy="118.868" r="5.96663" fill="rgb(0,0,0)" />
<circle cx="199.532" cy="588.773" r="8.59113" fill="rgb(0,0,0)" />
<circle cx="410.266" cy="548.425" r="7.70201" fill="rgb(0,0,0)" />
<circle cx="281.193" cy="590.527" r="6.62668" fill="rgb(0,0,0)" />
<circle cx="300.63" cy="589.145" r="7.78029" fill="rgb(0,0,0)" />
<circle cx="71.5929" cy="511.262" r="6.6836" fill="rgb(0,0,0)" />
<circle cx="548.57" cy="344.927" r="3.65603" fill="rgb(0,0,0)" />
<circle cx="118.666" cy="498.308" r="7.18431" fill="rgb(0,0,0)" />
<circle cx="548.145" cy="299.026" r="3.69954" fill="rgb(0,0,0)" />
<circle cx="549.003" cy="267.532" r="6.1114" fill="rgb(0,0,0)" />
<circle cx="406.81" cy="588.493" r="7.87176" fill="rgb(0,0,0)" />
<circle cx="552.321" cy="535.415" r="7.25827" fill="rgb(0,0,0)" />
<circle cx="340.656" cy="361.929" r="9.39164" fill="rgb(0,0,0)" />
<circle cx="116.151" cy="589.011" r="7.55986" fill="rgb(0,0,0)" />
<circle cx="355.719" cy="589.62" r="7.46066" fill="rgb(0,0,0)" />
<circle cx="336.964" cy="588.972" r="9.18313" fill="rgb(0,0,0)" />
<circle cx="212.078" cy="469.403" r="7.6256" fill="rgb(0,0,0)" />
<circle cx="96.225" cy="589.724" r="7.39673" fill="rgb(0,0,0)" />
<circle cx="13.6587" cy="353.537" r="5.11617" fill="rgb(0,0,0)" />
<circle cx="31.9535" cy="590.419" r="7.38516" fill="rgb(0,0,0)" />
<circle cx="136.509" cy="588.991" r="7.59423" fill="rgb(0,0,0)" />
<circle cx="551.174" cy="511.482" r="6.36719" fill="rgb(0,0,0)" />
<circle cx="549.799" cy="486.934" r="6.76174" fill="rgb(0,0,0)" />
<circle cx="13.7791" cy="326.05" r="5.76208" fill="rgb(0,0,0)" />
<circle cx="147.299" cy="258.534" r="7.41353" fill="rgb(0,0,0)" />
<circle cx="247.878" cy="514.062" r="7.54933" fill="rgb(0,0,0)" />
<circle cx="13.6773" cy="296.639" r="4.27939" fill="rgb(0,0,0)" />
<circle cx="310.564" cy="8.07735" r="5.86603" fill="rgb(0,0,0)" />
<circle cx="442.708" cy="590.122" r="5.56209" fill="rgb(0,0,0)" />
<circle cx="157.56" cy="441.174" r="10.1559" fill="rgb(0,0,0)" />
<circle cx="424.099" cy="589.418" r="7.06466" fill="rgb(0,0,0)" />
<circle cx="302.469" cy="331.78" r="5.76571" fill="rgb(0,0,0)" />
<circle cx="545.761" cy="431.905" r="3.98924" fill="rgb(0,0,0)" />
<circle cx="75.3412" cy="591.087" r="7.81462" fill="rgb(0,0,0)" />
<circle cx="142.531" cy="189.941" r="6.82582" fill="rgb(0,0,0)" />
<circle cx="247.724" cy="413.963" r="6.06581" fill="rgb(0,0,0)" />
<circle cx="52.5225" cy="590.574" r="7.62203" fill="rgb(0,0,0)" />
<circle cx="483.77" cy="108.22" r="7.88556" fill="rgb(0,0,0)" />
<circle cx="171.632" cy="258.272" r="7.0061" fill="rgb(0,0,0)" />
<circle cx="241.895" cy="590.249" r="7.58079" fill="rgb(0,0,0)" />
<circle cx="323.883" cy="261.83" r="7.30896" fill="rgb(0,0,0)" />
<circle cx="152.362" cy="418.152" r="7.4936" fill="rgb(0,0,0)" />
<circle cx="219.304" cy="589.544" r="8.08139" fill="rgb(0,0,0)" />
<circle cx="128.099" cy="533.6" r="7.8872" fill="rgb(0,0,0)" />
<circle cx="553.993" cy="559.842" r="8.14076" fill="rgb(0,0,0)" />
<circle cx="157.065" cy="589.359" r="7.59213" fill="rgb(0,0,0)" />
<circle cx="214.092" cy="240.204" r="6.40906" fill="rgb(0,0,0)" />
<circle cx="52.0036" cy="512.657" r="6.85157" fill="rgb(0,0,0)" />
<circle cx="178.454" cy="589.231" r="7.59042" fill="rgb(0,0,0)" />
<circle cx="6.84133" cy="512.267" r="8.57789" fill="rgb(0,0,0)" />
<circle cx="131.207" cy="112.013" r="6.71245" fill="rgb(0,0,0)" />
<circle cx="134.551" cy="320.308" r="6.21377" fill="rgb(0,0,0)" />
<circle cx="7.99475" cy="490.23" r="7.52846" fill="rgb(0,0,0)" />
<circle cx="285.449" cy="519.282" r="8.28433" fill="rgb(0,0,0)" />
<circle cx="450.379" cy="563.018" r="7.91585" fill="rgb(0,0,0)" />
<circle cx="50.4299" cy="12.7558" r="4.69173" fill="rgb(0,0,0)" />
<circle cx="12.5863" cy="54.706" r="5.16433" fill="rgb(0,0,0)" />
<circle cx="14.8929" cy="16.0688" r="5.2895" fill="rgb(0,0,0)" />
<circle cx="10.7405" cy="590.784" r="7.47431" fill="rgb(0,0,0)" />
<circle cx="422.38" cy="38.2076" r="5.94018" fill="rgb(0,0,0)" />
<circle cx="7.72122" cy="573.776" r="6.04338" fill="rgb(0,0,0)" />
<circle cx="214.762" cy="124.803" r="7.28406" fill="rgb(0,0,0)" />
<circle cx="63.0131" cy="412.194" r="3.15347" fill="rgb(0,0,0)" />
<circle cx="542.506" cy="591.139" r="6.14783" fill="rgb(0,0,0)" />
<circle cx="517.599" cy="406.769" r="4.57667" fill="rgb(0,0,0)" />
<circle cx="167.98" cy="528.379" r="8.85924" fill="rgb(0,0,0)" />
<circle cx="240.683" cy="534.481" r="7.58348" fill="rgb(0,0,0)" />
<circle cx="555.602" cy="585.016" r="8.35398" fill="rgb(0,0,0)" />
</svg>
